<?xml version="1.0" encoding="utf-8" standalone="no"?>
<!DOCTYPE svg PUBLIC "-//W3C//DTD SVG 1.1//EN"
  "http://www.w3.org/Graphics/SVG/1.1/DTD/svg11.dtd">
<svg height="388.8pt" version="1.1" viewBox="0 0 1172.88 388.8" width="1172.88pt" xmlns="http://www.w3.org/2000/svg" xmlns:xlink="http://www.w3.org/1999/xlink">
 <metadata>
  <rdf:RDF xmlns:cc="http://creativecommons.org/ns#" xmlns:dc="http://purl.org/dc/elements/1.1/" xmlns:rdf="http://www.w3.org/1999/02/22-rdf-syntax-ns#">
   <cc:Work>
    <dc:type rdf:resource="http://purl.org/dc/dcmitype/StillImage"/>
    <dc:date>2021-05-21T09:29:07.212584</dc:date>
    <dc:format>image/svg+xml</dc:format>
    <dc:creator>
     <cc:Agent>
      <dc:title>Matplotlib v3.4.2, https://matplotlib.org/</dc:title>
     </cc:Agent>
    </dc:creator>
   </cc:Work>
  </rdf:RDF>
 </metadata>
 <defs>
  <style type="text/css">*{stroke-linecap:butt;stroke-linejoin:round;}</style>
 </defs>
 <g id="figure_1">
  <g id="patch_1">
   <path d="M 0 388.8 
L 1172.88 388.8 
L 1172.88 0 
L 0 0 
z
" style="fill:#ffffff;"/>
  </g>
  <g id="axes_1">
   <g id="patch_2">
    <path d="M 56.99 341.584915 
L 383.17327 341.584915 
L 383.17327 53.933416 
L 56.99 53.933416 
z
" style="fill:#ffffff;"/>
   </g>
   <g id="matplotlib.axis_1">
    <g id="xtick_1">
     <g id="line2d_1">
      <path clip-path="url(#p8fcf27363d)" d="M 140.668703 341.584915 
L 140.668703 53.933416 
" style="fill:none;stroke:#cccccc;stroke-linecap:round;stroke-width:0.8;"/>
     </g>
     <g id="text_1">
      <!-- $\mathdefault{10^{1}}$ -->
      <g style="fill:#262626;" transform="translate(132.818703 358.897415)scale(0.1 -0.1)">
       <defs>
        <path d="M 2384 0 
L 1822 0 
L 1822 3584 
Q 1619 3391 1289 3197 
Q 959 3003 697 2906 
L 697 3450 
Q 1169 3672 1522 3987 
Q 1875 4303 2022 4600 
L 2384 4600 
L 2384 0 
z
" id="ArialMT-31" transform="scale(0.015625)"/>
        <path d="M 266 2259 
Q 266 3072 433 3567 
Q 600 4063 929 4331 
Q 1259 4600 1759 4600 
Q 2128 4600 2406 4451 
Q 2684 4303 2865 4023 
Q 3047 3744 3150 3342 
Q 3253 2941 3253 2259 
Q 3253 1453 3087 958 
Q 2922 463 2592 192 
Q 2263 -78 1759 -78 
Q 1097 -78 719 397 
Q 266 969 266 2259 
z
M 844 2259 
Q 844 1131 1108 757 
Q 1372 384 1759 384 
Q 2147 384 2411 759 
Q 2675 1134 2675 2259 
Q 2675 3391 2411 3762 
Q 2147 4134 1753 4134 
Q 1366 4134 1134 3806 
Q 844 3388 844 2259 
z
" id="ArialMT-30" transform="scale(0.015625)"/>
       </defs>
       <use transform="translate(0 0.99375)" xlink:href="#ArialMT-31"/>
       <use transform="translate(55.615234 0.99375)" xlink:href="#ArialMT-30"/>
       <use transform="translate(112.972813 70.6875)scale(0.7)" xlink:href="#ArialMT-31"/>
      </g>
     </g>
    </g>
    <g id="xtick_2">
     <g id="line2d_2">
      <path clip-path="url(#p8fcf27363d)" d="M 239.173918 341.584915 
L 239.173918 53.933416 
" style="fill:none;stroke:#cccccc;stroke-linecap:round;stroke-width:0.8;"/>
     </g>
     <g id="text_2">
      <!-- $\mathdefault{10^{2}}$ -->
      <g style="fill:#262626;" transform="translate(231.323918 358.897415)scale(0.1 -0.1)">
       <defs>
        <path d="M 3222 541 
L 3222 0 
L 194 0 
Q 188 203 259 391 
Q 375 700 629 1000 
Q 884 1300 1366 1694 
Q 2113 2306 2375 2664 
Q 2638 3022 2638 3341 
Q 2638 3675 2398 3904 
Q 2159 4134 1775 4134 
Q 1369 4134 1125 3890 
Q 881 3647 878 3216 
L 300 3275 
Q 359 3922 746 4261 
Q 1134 4600 1788 4600 
Q 2447 4600 2831 4234 
Q 3216 3869 3216 3328 
Q 3216 3053 3103 2787 
Q 2991 2522 2730 2228 
Q 2469 1934 1863 1422 
Q 1356 997 1212 845 
Q 1069 694 975 541 
L 3222 541 
z
" id="ArialMT-32" transform="scale(0.015625)"/>
       </defs>
       <use transform="translate(0 0.99375)" xlink:href="#ArialMT-31"/>
       <use transform="translate(55.615234 0.99375)" xlink:href="#ArialMT-30"/>
       <use transform="translate(112.972813 70.6875)scale(0.7)" xlink:href="#ArialMT-32"/>
      </g>
     </g>
    </g>
    <g id="xtick_3">
     <g id="line2d_3">
      <path clip-path="url(#p8fcf27363d)" d="M 337.679134 341.584915 
L 337.679134 53.933416 
" style="fill:none;stroke:#cccccc;stroke-linecap:round;stroke-width:0.8;"/>
     </g>
     <g id="text_3">
      <!-- $\mathdefault{10^{3}}$ -->
      <g style="fill:#262626;" transform="translate(329.829134 358.897415)scale(0.1 -0.1)">
       <defs>
        <path d="M 269 1209 
L 831 1284 
Q 928 806 1161 595 
Q 1394 384 1728 384 
Q 2125 384 2398 659 
Q 2672 934 2672 1341 
Q 2672 1728 2419 1979 
Q 2166 2231 1775 2231 
Q 1616 2231 1378 2169 
L 1441 2663 
Q 1497 2656 1531 2656 
Q 1891 2656 2178 2843 
Q 2466 3031 2466 3422 
Q 2466 3731 2256 3934 
Q 2047 4138 1716 4138 
Q 1388 4138 1169 3931 
Q 950 3725 888 3313 
L 325 3413 
Q 428 3978 793 4289 
Q 1159 4600 1703 4600 
Q 2078 4600 2393 4439 
Q 2709 4278 2876 4000 
Q 3044 3722 3044 3409 
Q 3044 3113 2884 2869 
Q 2725 2625 2413 2481 
Q 2819 2388 3044 2092 
Q 3269 1797 3269 1353 
Q 3269 753 2831 336 
Q 2394 -81 1725 -81 
Q 1122 -81 723 278 
Q 325 638 269 1209 
z
" id="ArialMT-33" transform="scale(0.015625)"/>
       </defs>
       <use transform="translate(0 0.99375)" xlink:href="#ArialMT-31"/>
       <use transform="translate(55.615234 0.99375)" xlink:href="#ArialMT-30"/>
       <use transform="translate(112.972813 70.6875)scale(0.7)" xlink:href="#ArialMT-33"/>
      </g>
     </g>
    </g>
    <g id="xtick_4"/>
    <g id="xtick_5"/>
    <g id="xtick_6"/>
    <g id="xtick_7"/>
    <g id="xtick_8"/>
    <g id="xtick_9"/>
    <g id="xtick_10"/>
    <g id="xtick_11"/>
    <g id="xtick_12"/>
    <g id="xtick_13"/>
    <g id="xtick_14"/>
    <g id="xtick_15"/>
    <g id="xtick_16"/>
    <g id="xtick_17"/>
    <g id="xtick_18"/>
    <g id="xtick_19"/>
    <g id="xtick_20"/>
    <g id="xtick_21"/>
    <g id="xtick_22"/>
    <g id="xtick_23"/>
    <g id="xtick_24"/>
    <g id="xtick_25"/>
    <g id="xtick_26"/>
    <g id="xtick_27"/>
    <g id="xtick_28"/>
    <g id="text_4">
     <!-- batch size -->
     <g style="fill:#262626;" transform="translate(197.570698 372.042728)scale(0.1 -0.1)">
      <defs>
       <path d="M 941 0 
L 419 0 
L 419 4581 
L 981 4581 
L 981 2947 
Q 1338 3394 1891 3394 
Q 2197 3394 2470 3270 
Q 2744 3147 2920 2923 
Q 3097 2700 3197 2384 
Q 3297 2069 3297 1709 
Q 3297 856 2875 390 
Q 2453 -75 1863 -75 
Q 1275 -75 941 416 
L 941 0 
z
M 934 1684 
Q 934 1088 1097 822 
Q 1363 388 1816 388 
Q 2184 388 2453 708 
Q 2722 1028 2722 1663 
Q 2722 2313 2464 2622 
Q 2206 2931 1841 2931 
Q 1472 2931 1203 2611 
Q 934 2291 934 1684 
z
" id="ArialMT-62" transform="scale(0.015625)"/>
       <path d="M 2588 409 
Q 2275 144 1986 34 
Q 1697 -75 1366 -75 
Q 819 -75 525 192 
Q 231 459 231 875 
Q 231 1119 342 1320 
Q 453 1522 633 1644 
Q 813 1766 1038 1828 
Q 1203 1872 1538 1913 
Q 2219 1994 2541 2106 
Q 2544 2222 2544 2253 
Q 2544 2597 2384 2738 
Q 2169 2928 1744 2928 
Q 1347 2928 1158 2789 
Q 969 2650 878 2297 
L 328 2372 
Q 403 2725 575 2942 
Q 747 3159 1072 3276 
Q 1397 3394 1825 3394 
Q 2250 3394 2515 3294 
Q 2781 3194 2906 3042 
Q 3031 2891 3081 2659 
Q 3109 2516 3109 2141 
L 3109 1391 
Q 3109 606 3145 398 
Q 3181 191 3288 0 
L 2700 0 
Q 2613 175 2588 409 
z
M 2541 1666 
Q 2234 1541 1622 1453 
Q 1275 1403 1131 1340 
Q 988 1278 909 1158 
Q 831 1038 831 891 
Q 831 666 1001 516 
Q 1172 366 1500 366 
Q 1825 366 2078 508 
Q 2331 650 2450 897 
Q 2541 1088 2541 1459 
L 2541 1666 
z
" id="ArialMT-61" transform="scale(0.015625)"/>
       <path d="M 1650 503 
L 1731 6 
Q 1494 -44 1306 -44 
Q 1000 -44 831 53 
Q 663 150 594 308 
Q 525 466 525 972 
L 525 2881 
L 113 2881 
L 113 3319 
L 525 3319 
L 525 4141 
L 1084 4478 
L 1084 3319 
L 1650 3319 
L 1650 2881 
L 1084 2881 
L 1084 941 
Q 1084 700 1114 631 
Q 1144 563 1211 522 
Q 1278 481 1403 481 
Q 1497 481 1650 503 
z
" id="ArialMT-74" transform="scale(0.015625)"/>
       <path d="M 2588 1216 
L 3141 1144 
Q 3050 572 2676 248 
Q 2303 -75 1759 -75 
Q 1078 -75 664 370 
Q 250 816 250 1647 
Q 250 2184 428 2587 
Q 606 2991 970 3192 
Q 1334 3394 1763 3394 
Q 2303 3394 2647 3120 
Q 2991 2847 3088 2344 
L 2541 2259 
Q 2463 2594 2264 2762 
Q 2066 2931 1784 2931 
Q 1359 2931 1093 2626 
Q 828 2322 828 1663 
Q 828 994 1084 691 
Q 1341 388 1753 388 
Q 2084 388 2306 591 
Q 2528 794 2588 1216 
z
" id="ArialMT-63" transform="scale(0.015625)"/>
       <path d="M 422 0 
L 422 4581 
L 984 4581 
L 984 2938 
Q 1378 3394 1978 3394 
Q 2347 3394 2619 3248 
Q 2891 3103 3008 2847 
Q 3125 2591 3125 2103 
L 3125 0 
L 2563 0 
L 2563 2103 
Q 2563 2525 2380 2717 
Q 2197 2909 1863 2909 
Q 1613 2909 1392 2779 
Q 1172 2650 1078 2428 
Q 984 2206 984 1816 
L 984 0 
L 422 0 
z
" id="ArialMT-68" transform="scale(0.015625)"/>
       <path id="ArialMT-20" transform="scale(0.015625)"/>
       <path d="M 197 991 
L 753 1078 
Q 800 744 1014 566 
Q 1228 388 1613 388 
Q 2000 388 2187 545 
Q 2375 703 2375 916 
Q 2375 1106 2209 1216 
Q 2094 1291 1634 1406 
Q 1016 1563 777 1677 
Q 538 1791 414 1992 
Q 291 2194 291 2438 
Q 291 2659 392 2848 
Q 494 3038 669 3163 
Q 800 3259 1026 3326 
Q 1253 3394 1513 3394 
Q 1903 3394 2198 3281 
Q 2494 3169 2634 2976 
Q 2775 2784 2828 2463 
L 2278 2388 
Q 2241 2644 2061 2787 
Q 1881 2931 1553 2931 
Q 1166 2931 1000 2803 
Q 834 2675 834 2503 
Q 834 2394 903 2306 
Q 972 2216 1119 2156 
Q 1203 2125 1616 2013 
Q 2213 1853 2448 1751 
Q 2684 1650 2818 1456 
Q 2953 1263 2953 975 
Q 2953 694 2789 445 
Q 2625 197 2315 61 
Q 2006 -75 1616 -75 
Q 969 -75 630 194 
Q 291 463 197 991 
z
" id="ArialMT-73" transform="scale(0.015625)"/>
       <path d="M 425 3934 
L 425 4581 
L 988 4581 
L 988 3934 
L 425 3934 
z
M 425 0 
L 425 3319 
L 988 3319 
L 988 0 
L 425 0 
z
" id="ArialMT-69" transform="scale(0.015625)"/>
       <path d="M 125 0 
L 125 456 
L 2238 2881 
Q 1878 2863 1603 2863 
L 250 2863 
L 250 3319 
L 2963 3319 
L 2963 2947 
L 1166 841 
L 819 456 
Q 1197 484 1528 484 
L 3063 484 
L 3063 0 
L 125 0 
z
" id="ArialMT-7a" transform="scale(0.015625)"/>
       <path d="M 2694 1069 
L 3275 997 
Q 3138 488 2766 206 
Q 2394 -75 1816 -75 
Q 1088 -75 661 373 
Q 234 822 234 1631 
Q 234 2469 665 2931 
Q 1097 3394 1784 3394 
Q 2450 3394 2872 2941 
Q 3294 2488 3294 1666 
Q 3294 1616 3291 1516 
L 816 1516 
Q 847 969 1125 678 
Q 1403 388 1819 388 
Q 2128 388 2347 550 
Q 2566 713 2694 1069 
z
M 847 1978 
L 2700 1978 
Q 2663 2397 2488 2606 
Q 2219 2931 1791 2931 
Q 1403 2931 1139 2672 
Q 875 2413 847 1978 
z
" id="ArialMT-65" transform="scale(0.015625)"/>
      </defs>
      <use xlink:href="#ArialMT-62"/>
      <use x="55.615234" xlink:href="#ArialMT-61"/>
      <use x="111.230469" xlink:href="#ArialMT-74"/>
      <use x="139.013672" xlink:href="#ArialMT-63"/>
      <use x="189.013672" xlink:href="#ArialMT-68"/>
      <use x="244.628906" xlink:href="#ArialMT-20"/>
      <use x="272.412109" xlink:href="#ArialMT-73"/>
      <use x="322.412109" xlink:href="#ArialMT-69"/>
      <use x="344.628906" xlink:href="#ArialMT-7a"/>
      <use x="394.628906" xlink:href="#ArialMT-65"/>
     </g>
    </g>
   </g>
   <g id="matplotlib.axis_2">
    <g id="ytick_1">
     <g id="line2d_4">
      <path clip-path="url(#p8fcf27363d)" d="M 56.99 317.766285 
L 383.17327 317.766285 
" style="fill:none;stroke:#cccccc;stroke-linecap:round;stroke-width:0.8;"/>
     </g>
     <g id="text_5">
      <!-- 0.002 -->
      <g style="fill:#262626;" transform="translate(24.968125 321.345192)scale(0.1 -0.1)">
       <defs>
        <path d="M 581 0 
L 581 641 
L 1222 641 
L 1222 0 
L 581 0 
z
" id="ArialMT-2e" transform="scale(0.015625)"/>
       </defs>
       <use xlink:href="#ArialMT-30"/>
       <use x="55.615234" xlink:href="#ArialMT-2e"/>
       <use x="83.398438" xlink:href="#ArialMT-30"/>
       <use x="139.013672" xlink:href="#ArialMT-30"/>
       <use x="194.628906" xlink:href="#ArialMT-32"/>
      </g>
     </g>
    </g>
    <g id="ytick_2">
     <g id="line2d_5">
      <path clip-path="url(#p8fcf27363d)" d="M 56.99 285.081344 
L 383.17327 285.081344 
" style="fill:none;stroke:#cccccc;stroke-linecap:round;stroke-width:0.8;"/>
     </g>
     <g id="text_6">
      <!-- 0.004 -->
      <g style="fill:#262626;" transform="translate(24.968125 288.66025)scale(0.1 -0.1)">
       <defs>
        <path d="M 2069 0 
L 2069 1097 
L 81 1097 
L 81 1613 
L 2172 4581 
L 2631 4581 
L 2631 1613 
L 3250 1613 
L 3250 1097 
L 2631 1097 
L 2631 0 
L 2069 0 
z
M 2069 1613 
L 2069 3678 
L 634 1613 
L 2069 1613 
z
" id="ArialMT-34" transform="scale(0.015625)"/>
       </defs>
       <use xlink:href="#ArialMT-30"/>
       <use x="55.615234" xlink:href="#ArialMT-2e"/>
       <use x="83.398438" xlink:href="#ArialMT-30"/>
       <use x="139.013672" xlink:href="#ArialMT-30"/>
       <use x="194.628906" xlink:href="#ArialMT-34"/>
      </g>
     </g>
    </g>
    <g id="ytick_3">
     <g id="line2d_6">
      <path clip-path="url(#p8fcf27363d)" d="M 56.99 252.396403 
L 383.17327 252.396403 
" style="fill:none;stroke:#cccccc;stroke-linecap:round;stroke-width:0.8;"/>
     </g>
     <g id="text_7">
      <!-- 0.006 -->
      <g style="fill:#262626;" transform="translate(24.968125 255.975309)scale(0.1 -0.1)">
       <defs>
        <path d="M 3184 3459 
L 2625 3416 
Q 2550 3747 2413 3897 
Q 2184 4138 1850 4138 
Q 1581 4138 1378 3988 
Q 1113 3794 959 3422 
Q 806 3050 800 2363 
Q 1003 2672 1297 2822 
Q 1591 2972 1913 2972 
Q 2475 2972 2870 2558 
Q 3266 2144 3266 1488 
Q 3266 1056 3080 686 
Q 2894 316 2569 119 
Q 2244 -78 1831 -78 
Q 1128 -78 684 439 
Q 241 956 241 2144 
Q 241 3472 731 4075 
Q 1159 4600 1884 4600 
Q 2425 4600 2770 4297 
Q 3116 3994 3184 3459 
z
M 888 1484 
Q 888 1194 1011 928 
Q 1134 663 1356 523 
Q 1578 384 1822 384 
Q 2178 384 2434 671 
Q 2691 959 2691 1453 
Q 2691 1928 2437 2201 
Q 2184 2475 1800 2475 
Q 1419 2475 1153 2201 
Q 888 1928 888 1484 
z
" id="ArialMT-36" transform="scale(0.015625)"/>
       </defs>
       <use xlink:href="#ArialMT-30"/>
       <use x="55.615234" xlink:href="#ArialMT-2e"/>
       <use x="83.398438" xlink:href="#ArialMT-30"/>
       <use x="139.013672" xlink:href="#ArialMT-30"/>
       <use x="194.628906" xlink:href="#ArialMT-36"/>
      </g>
     </g>
    </g>
    <g id="ytick_4">
     <g id="line2d_7">
      <path clip-path="url(#p8fcf27363d)" d="M 56.99 219.711462 
L 383.17327 219.711462 
" style="fill:none;stroke:#cccccc;stroke-linecap:round;stroke-width:0.8;"/>
     </g>
     <g id="text_8">
      <!-- 0.008 -->
      <g style="fill:#262626;" transform="translate(24.968125 223.290368)scale(0.1 -0.1)">
       <defs>
        <path d="M 1131 2484 
Q 781 2613 612 2850 
Q 444 3088 444 3419 
Q 444 3919 803 4259 
Q 1163 4600 1759 4600 
Q 2359 4600 2725 4251 
Q 3091 3903 3091 3403 
Q 3091 3084 2923 2848 
Q 2756 2613 2416 2484 
Q 2838 2347 3058 2040 
Q 3278 1734 3278 1309 
Q 3278 722 2862 322 
Q 2447 -78 1769 -78 
Q 1091 -78 675 323 
Q 259 725 259 1325 
Q 259 1772 486 2073 
Q 713 2375 1131 2484 
z
M 1019 3438 
Q 1019 3113 1228 2906 
Q 1438 2700 1772 2700 
Q 2097 2700 2305 2904 
Q 2513 3109 2513 3406 
Q 2513 3716 2298 3927 
Q 2084 4138 1766 4138 
Q 1444 4138 1231 3931 
Q 1019 3725 1019 3438 
z
M 838 1322 
Q 838 1081 952 856 
Q 1066 631 1291 507 
Q 1516 384 1775 384 
Q 2178 384 2440 643 
Q 2703 903 2703 1303 
Q 2703 1709 2433 1975 
Q 2163 2241 1756 2241 
Q 1359 2241 1098 1978 
Q 838 1716 838 1322 
z
" id="ArialMT-38" transform="scale(0.015625)"/>
       </defs>
       <use xlink:href="#ArialMT-30"/>
       <use x="55.615234" xlink:href="#ArialMT-2e"/>
       <use x="83.398438" xlink:href="#ArialMT-30"/>
       <use x="139.013672" xlink:href="#ArialMT-30"/>
       <use x="194.628906" xlink:href="#ArialMT-38"/>
      </g>
     </g>
    </g>
    <g id="ytick_5">
     <g id="line2d_8">
      <path clip-path="url(#p8fcf27363d)" d="M 56.99 187.026521 
L 383.17327 187.026521 
" style="fill:none;stroke:#cccccc;stroke-linecap:round;stroke-width:0.8;"/>
     </g>
     <g id="text_9">
      <!-- 0.010 -->
      <g style="fill:#262626;" transform="translate(24.968125 190.605427)scale(0.1 -0.1)">
       <use xlink:href="#ArialMT-30"/>
       <use x="55.615234" xlink:href="#ArialMT-2e"/>
       <use x="83.398438" xlink:href="#ArialMT-30"/>
       <use x="139.013672" xlink:href="#ArialMT-31"/>
       <use x="194.628906" xlink:href="#ArialMT-30"/>
      </g>
     </g>
    </g>
    <g id="ytick_6">
     <g id="line2d_9">
      <path clip-path="url(#p8fcf27363d)" d="M 56.99 154.341579 
L 383.17327 154.341579 
" style="fill:none;stroke:#cccccc;stroke-linecap:round;stroke-width:0.8;"/>
     </g>
     <g id="text_10">
      <!-- 0.012 -->
      <g style="fill:#262626;" transform="translate(24.968125 157.920486)scale(0.1 -0.1)">
       <use xlink:href="#ArialMT-30"/>
       <use x="55.615234" xlink:href="#ArialMT-2e"/>
       <use x="83.398438" xlink:href="#ArialMT-30"/>
       <use x="139.013672" xlink:href="#ArialMT-31"/>
       <use x="194.628906" xlink:href="#ArialMT-32"/>
      </g>
     </g>
    </g>
    <g id="ytick_7">
     <g id="line2d_10">
      <path clip-path="url(#p8fcf27363d)" d="M 56.99 121.656638 
L 383.17327 121.656638 
" style="fill:none;stroke:#cccccc;stroke-linecap:round;stroke-width:0.8;"/>
     </g>
     <g id="text_11">
      <!-- 0.014 -->
      <g style="fill:#262626;" transform="translate(24.968125 125.235544)scale(0.1 -0.1)">
       <use xlink:href="#ArialMT-30"/>
       <use x="55.615234" xlink:href="#ArialMT-2e"/>
       <use x="83.398438" xlink:href="#ArialMT-30"/>
       <use x="139.013672" xlink:href="#ArialMT-31"/>
       <use x="194.628906" xlink:href="#ArialMT-34"/>
      </g>
     </g>
    </g>
    <g id="ytick_8">
     <g id="line2d_11">
      <path clip-path="url(#p8fcf27363d)" d="M 56.99 88.971697 
L 383.17327 88.971697 
" style="fill:none;stroke:#cccccc;stroke-linecap:round;stroke-width:0.8;"/>
     </g>
     <g id="text_12">
      <!-- 0.016 -->
      <g style="fill:#262626;" transform="translate(24.968125 92.550603)scale(0.1 -0.1)">
       <use xlink:href="#ArialMT-30"/>
       <use x="55.615234" xlink:href="#ArialMT-2e"/>
       <use x="83.398438" xlink:href="#ArialMT-30"/>
       <use x="139.013672" xlink:href="#ArialMT-31"/>
       <use x="194.628906" xlink:href="#ArialMT-36"/>
      </g>
     </g>
    </g>
    <g id="ytick_9">
     <g id="line2d_12">
      <path clip-path="url(#p8fcf27363d)" d="M 56.99 56.286756 
L 383.17327 56.286756 
" style="fill:none;stroke:#cccccc;stroke-linecap:round;stroke-width:0.8;"/>
     </g>
     <g id="text_13">
      <!-- 0.018 -->
      <g style="fill:#262626;" transform="translate(24.968125 59.865662)scale(0.1 -0.1)">
       <use xlink:href="#ArialMT-30"/>
       <use x="55.615234" xlink:href="#ArialMT-2e"/>
       <use x="83.398438" xlink:href="#ArialMT-30"/>
       <use x="139.013672" xlink:href="#ArialMT-31"/>
       <use x="194.628906" xlink:href="#ArialMT-38"/>
      </g>
     </g>
    </g>
    <g id="text_14">
     <!-- time (s)/batch -->
     <g style="fill:#262626;" transform="translate(18.863437 228.042759)rotate(-90)scale(0.1 -0.1)">
      <defs>
       <path d="M 422 0 
L 422 3319 
L 925 3319 
L 925 2853 
Q 1081 3097 1340 3245 
Q 1600 3394 1931 3394 
Q 2300 3394 2536 3241 
Q 2772 3088 2869 2813 
Q 3263 3394 3894 3394 
Q 4388 3394 4653 3120 
Q 4919 2847 4919 2278 
L 4919 0 
L 4359 0 
L 4359 2091 
Q 4359 2428 4304 2576 
Q 4250 2725 4106 2815 
Q 3963 2906 3769 2906 
Q 3419 2906 3187 2673 
Q 2956 2441 2956 1928 
L 2956 0 
L 2394 0 
L 2394 2156 
Q 2394 2531 2256 2718 
Q 2119 2906 1806 2906 
Q 1569 2906 1367 2781 
Q 1166 2656 1075 2415 
Q 984 2175 984 1722 
L 984 0 
L 422 0 
z
" id="ArialMT-6d" transform="scale(0.015625)"/>
       <path d="M 1497 -1347 
Q 1031 -759 709 28 
Q 388 816 388 1659 
Q 388 2403 628 3084 
Q 909 3875 1497 4659 
L 1900 4659 
Q 1522 4009 1400 3731 
Q 1209 3300 1100 2831 
Q 966 2247 966 1656 
Q 966 153 1900 -1347 
L 1497 -1347 
z
" id="ArialMT-28" transform="scale(0.015625)"/>
       <path d="M 791 -1347 
L 388 -1347 
Q 1322 153 1322 1656 
Q 1322 2244 1188 2822 
Q 1081 3291 891 3722 
Q 769 4003 388 4659 
L 791 4659 
Q 1378 3875 1659 3084 
Q 1900 2403 1900 1659 
Q 1900 816 1576 28 
Q 1253 -759 791 -1347 
z
" id="ArialMT-29" transform="scale(0.015625)"/>
       <path d="M 0 -78 
L 1328 4659 
L 1778 4659 
L 453 -78 
L 0 -78 
z
" id="ArialMT-2f" transform="scale(0.015625)"/>
      </defs>
      <use xlink:href="#ArialMT-74"/>
      <use x="27.783203" xlink:href="#ArialMT-69"/>
      <use x="50" xlink:href="#ArialMT-6d"/>
      <use x="133.300781" xlink:href="#ArialMT-65"/>
      <use x="188.916016" xlink:href="#ArialMT-20"/>
      <use x="216.699219" xlink:href="#ArialMT-28"/>
      <use x="250" xlink:href="#ArialMT-73"/>
      <use x="300" xlink:href="#ArialMT-29"/>
      <use x="333.300781" xlink:href="#ArialMT-2f"/>
      <use x="361.083984" xlink:href="#ArialMT-62"/>
      <use x="416.699219" xlink:href="#ArialMT-61"/>
      <use x="472.314453" xlink:href="#ArialMT-74"/>
      <use x="500.097656" xlink:href="#ArialMT-63"/>
      <use x="550.097656" xlink:href="#ArialMT-68"/>
     </g>
    </g>
   </g>
   <g id="PolyCollection_1">
    <defs>
     <path d="M 71.816512 -63.125866 
L 71.816512 -63.051369 
L 101.469537 -67.300617 
L 131.122561 -68.713079 
L 160.775586 -66.262614 
L 190.42861 -70.285381 
L 220.081635 -72.141934 
L 249.73466 -68.698954 
L 279.387684 -85.791949 
L 309.040709 -97.331058 
L 309.040709 -99.108391 
L 309.040709 -99.108391 
L 279.387684 -87.598094 
L 249.73466 -70.54815 
L 220.081635 -72.996418 
L 190.42861 -70.921104 
L 160.775586 -66.382196 
L 131.122561 -69.466688 
L 101.469537 -68.828392 
L 71.816512 -63.125866 
z
" id="mbe0b3f4937" style="stroke:#1f77b4;stroke-opacity:0.2;"/>
    </defs>
    <g clip-path="url(#p8fcf27363d)">
     <use style="fill:#1f77b4;fill-opacity:0.2;stroke:#1f77b4;stroke-opacity:0.2;" x="0" xlink:href="#mbe0b3f4937" y="388.8"/>
    </g>
   </g>
   <g id="PolyCollection_2">
    <defs>
     <path d="M 71.816512 -132.708112 
L 71.816512 -122.459204 
L 101.469537 -135.847848 
L 131.122561 -137.894481 
L 160.775586 -167.522215 
L 190.42861 -139.980074 
L 220.081635 -220.271221 
L 249.73466 -220.371421 
L 279.387684 -183.252891 
L 309.040709 -228.682792 
L 309.040709 -232.629957 
L 309.040709 -232.629957 
L 279.387684 -195.456312 
L 249.73466 -221.802676 
L 220.081635 -221.515225 
L 190.42861 -157.113069 
L 160.775586 -182.637288 
L 131.122561 -150.848503 
L 101.469537 -148.659654 
L 71.816512 -132.708112 
z
" id="m3b8c6eb563" style="stroke:#ff7f0e;stroke-opacity:0.2;"/>
    </defs>
    <g clip-path="url(#p8fcf27363d)">
     <use style="fill:#ff7f0e;fill-opacity:0.2;stroke:#ff7f0e;stroke-opacity:0.2;" x="0" xlink:href="#m3b8c6eb563" y="388.8"/>
    </g>
   </g>
   <g id="PolyCollection_3">
    <defs>
     <path d="M 71.816512 -72.106388 
L 71.816512 -71.665789 
L 101.469537 -75.660737 
L 131.122561 -75.294884 
L 160.775586 -75.01502 
L 190.42861 -73.549123 
L 220.081635 -78.710172 
L 249.73466 -76.439557 
L 279.387684 -79.323497 
L 309.040709 -90.743644 
L 309.040709 -93.094623 
L 309.040709 -93.094623 
L 279.387684 -80.459771 
L 249.73466 -79.863832 
L 220.081635 -79.976273 
L 190.42861 -74.975008 
L 160.775586 -76.233332 
L 131.122561 -79.584526 
L 101.469537 -76.669737 
L 71.816512 -72.106388 
z
" id="mf2469e9111" style="stroke:#2ca02c;stroke-opacity:0.2;"/>
    </defs>
    <g clip-path="url(#p8fcf27363d)">
     <use style="fill:#2ca02c;fill-opacity:0.2;stroke:#2ca02c;stroke-opacity:0.2;" x="0" xlink:href="#mf2469e9111" y="388.8"/>
    </g>
   </g>
   <g id="line2d_13">
    <path clip-path="url(#p8fcf27363d)" d="M 71.816512 325.712479 
L 101.469537 320.795178 
L 131.122561 319.710225 
L 160.775586 322.475642 
L 190.42861 318.197952 
L 220.081635 316.250071 
L 249.73466 319.152885 
L 279.387684 302.170871 
L 309.040709 290.594437 
" style="fill:none;stroke:#1f77b4;stroke-linecap:round;stroke-width:1.5;"/>
   </g>
   <g id="line2d_14">
    <path clip-path="url(#p8fcf27363d)" d="M 71.816512 260.971087 
L 101.469537 246.158171 
L 131.122561 244.601108 
L 160.775586 213.256311 
L 190.42861 240.158312 
L 220.081635 167.930596 
L 249.73466 167.76982 
L 279.387684 199.287343 
L 309.040709 158.328553 
" style="fill:none;stroke:#ff7f0e;stroke-linecap:round;stroke-width:1.5;"/>
   </g>
   <g id="line2d_15">
    <path clip-path="url(#p8fcf27363d)" d="M 71.816512 316.936253 
L 101.469537 312.652179 
L 131.122561 311.47563 
L 160.775586 313.22483 
L 190.42861 314.602701 
L 220.081635 309.503098 
L 249.73466 310.81706 
L 279.387684 308.95049 
L 309.040709 296.933101 
" style="fill:none;stroke:#2ca02c;stroke-linecap:round;stroke-width:1.5;"/>
   </g>
   <g id="line2d_16"/>
   <g id="line2d_17"/>
   <g id="line2d_18"/>
   <g id="patch_3">
    <path d="M 56.99 341.584915 
L 56.99 53.933416 
" style="fill:none;stroke:#cccccc;stroke-linecap:square;stroke-linejoin:miter;stroke-width:0.8;"/>
   </g>
   <g id="patch_4">
    <path d="M 56.99 341.584915 
L 383.17327 341.584915 
" style="fill:none;stroke:#cccccc;stroke-linecap:square;stroke-linejoin:miter;stroke-width:0.8;"/>
   </g>
   <g id="text_15">
    <!-- dataset = countries -->
    <g style="fill:#262626;" transform="translate(177.696479 47.933416)scale(0.1 -0.1)">
     <defs>
      <path d="M 2575 0 
L 2575 419 
Q 2259 -75 1647 -75 
Q 1250 -75 917 144 
Q 584 363 401 755 
Q 219 1147 219 1656 
Q 219 2153 384 2558 
Q 550 2963 881 3178 
Q 1213 3394 1622 3394 
Q 1922 3394 2156 3267 
Q 2391 3141 2538 2938 
L 2538 4581 
L 3097 4581 
L 3097 0 
L 2575 0 
z
M 797 1656 
Q 797 1019 1065 703 
Q 1334 388 1700 388 
Q 2069 388 2326 689 
Q 2584 991 2584 1609 
Q 2584 2291 2321 2609 
Q 2059 2928 1675 2928 
Q 1300 2928 1048 2622 
Q 797 2316 797 1656 
z
" id="ArialMT-64" transform="scale(0.015625)"/>
      <path d="M 3381 2694 
L 356 2694 
L 356 3219 
L 3381 3219 
L 3381 2694 
z
M 3381 1303 
L 356 1303 
L 356 1828 
L 3381 1828 
L 3381 1303 
z
" id="ArialMT-3d" transform="scale(0.015625)"/>
      <path d="M 213 1659 
Q 213 2581 725 3025 
Q 1153 3394 1769 3394 
Q 2453 3394 2887 2945 
Q 3322 2497 3322 1706 
Q 3322 1066 3130 698 
Q 2938 331 2570 128 
Q 2203 -75 1769 -75 
Q 1072 -75 642 372 
Q 213 819 213 1659 
z
M 791 1659 
Q 791 1022 1069 705 
Q 1347 388 1769 388 
Q 2188 388 2466 706 
Q 2744 1025 2744 1678 
Q 2744 2294 2464 2611 
Q 2184 2928 1769 2928 
Q 1347 2928 1069 2612 
Q 791 2297 791 1659 
z
" id="ArialMT-6f" transform="scale(0.015625)"/>
      <path d="M 2597 0 
L 2597 488 
Q 2209 -75 1544 -75 
Q 1250 -75 995 37 
Q 741 150 617 320 
Q 494 491 444 738 
Q 409 903 409 1263 
L 409 3319 
L 972 3319 
L 972 1478 
Q 972 1038 1006 884 
Q 1059 663 1231 536 
Q 1403 409 1656 409 
Q 1909 409 2131 539 
Q 2353 669 2445 892 
Q 2538 1116 2538 1541 
L 2538 3319 
L 3100 3319 
L 3100 0 
L 2597 0 
z
" id="ArialMT-75" transform="scale(0.015625)"/>
      <path d="M 422 0 
L 422 3319 
L 928 3319 
L 928 2847 
Q 1294 3394 1984 3394 
Q 2284 3394 2536 3286 
Q 2788 3178 2913 3003 
Q 3038 2828 3088 2588 
Q 3119 2431 3119 2041 
L 3119 0 
L 2556 0 
L 2556 2019 
Q 2556 2363 2490 2533 
Q 2425 2703 2258 2804 
Q 2091 2906 1866 2906 
Q 1506 2906 1245 2678 
Q 984 2450 984 1813 
L 984 0 
L 422 0 
z
" id="ArialMT-6e" transform="scale(0.015625)"/>
      <path d="M 416 0 
L 416 3319 
L 922 3319 
L 922 2816 
Q 1116 3169 1280 3281 
Q 1444 3394 1641 3394 
Q 1925 3394 2219 3213 
L 2025 2691 
Q 1819 2813 1613 2813 
Q 1428 2813 1281 2702 
Q 1134 2591 1072 2394 
Q 978 2094 978 1738 
L 978 0 
L 416 0 
z
" id="ArialMT-72" transform="scale(0.015625)"/>
     </defs>
     <use xlink:href="#ArialMT-64"/>
     <use x="55.615234" xlink:href="#ArialMT-61"/>
     <use x="111.230469" xlink:href="#ArialMT-74"/>
     <use x="139.013672" xlink:href="#ArialMT-61"/>
     <use x="194.628906" xlink:href="#ArialMT-73"/>
     <use x="244.628906" xlink:href="#ArialMT-65"/>
     <use x="300.244141" xlink:href="#ArialMT-74"/>
     <use x="328.027344" xlink:href="#ArialMT-20"/>
     <use x="355.810547" xlink:href="#ArialMT-3d"/>
     <use x="414.208984" xlink:href="#ArialMT-20"/>
     <use x="441.992188" xlink:href="#ArialMT-63"/>
     <use x="491.992188" xlink:href="#ArialMT-6f"/>
     <use x="547.607422" xlink:href="#ArialMT-75"/>
     <use x="603.222656" xlink:href="#ArialMT-6e"/>
     <use x="658.837891" xlink:href="#ArialMT-74"/>
     <use x="686.621094" xlink:href="#ArialMT-72"/>
     <use x="719.921875" xlink:href="#ArialMT-69"/>
     <use x="742.138672" xlink:href="#ArialMT-65"/>
     <use x="797.753906" xlink:href="#ArialMT-73"/>
    </g>
   </g>
  </g>
  <g id="axes_2">
   <g id="patch_5">
    <path d="M 393.97327 341.584915 
L 720.15654 341.584915 
L 720.15654 53.933416 
L 393.97327 53.933416 
z
" style="fill:#ffffff;"/>
   </g>
   <g id="matplotlib.axis_3">
    <g id="xtick_29">
     <g id="line2d_19">
      <path clip-path="url(#pd42f67466a)" d="M 477.651973 341.584915 
L 477.651973 53.933416 
" style="fill:none;stroke:#cccccc;stroke-linecap:round;stroke-width:0.8;"/>
     </g>
     <g id="text_16">
      <!-- $\mathdefault{10^{1}}$ -->
      <g style="fill:#262626;" transform="translate(469.801973 358.897415)scale(0.1 -0.1)">
       <use transform="translate(0 0.99375)" xlink:href="#ArialMT-31"/>
       <use transform="translate(55.615234 0.99375)" xlink:href="#ArialMT-30"/>
       <use transform="translate(112.972813 70.6875)scale(0.7)" xlink:href="#ArialMT-31"/>
      </g>
     </g>
    </g>
    <g id="xtick_30">
     <g id="line2d_20">
      <path clip-path="url(#pd42f67466a)" d="M 576.157188 341.584915 
L 576.157188 53.933416 
" style="fill:none;stroke:#cccccc;stroke-linecap:round;stroke-width:0.8;"/>
     </g>
     <g id="text_17">
      <!-- $\mathdefault{10^{2}}$ -->
      <g style="fill:#262626;" transform="translate(568.307188 358.897415)scale(0.1 -0.1)">
       <use transform="translate(0 0.99375)" xlink:href="#ArialMT-31"/>
       <use transform="translate(55.615234 0.99375)" xlink:href="#ArialMT-30"/>
       <use transform="translate(112.972813 70.6875)scale(0.7)" xlink:href="#ArialMT-32"/>
      </g>
     </g>
    </g>
    <g id="xtick_31">
     <g id="line2d_21">
      <path clip-path="url(#pd42f67466a)" d="M 674.662404 341.584915 
L 674.662404 53.933416 
" style="fill:none;stroke:#cccccc;stroke-linecap:round;stroke-width:0.8;"/>
     </g>
     <g id="text_18">
      <!-- $\mathdefault{10^{3}}$ -->
      <g style="fill:#262626;" transform="translate(666.812404 358.897415)scale(0.1 -0.1)">
       <use transform="translate(0 0.99375)" xlink:href="#ArialMT-31"/>
       <use transform="translate(55.615234 0.99375)" xlink:href="#ArialMT-30"/>
       <use transform="translate(112.972813 70.6875)scale(0.7)" xlink:href="#ArialMT-33"/>
      </g>
     </g>
    </g>
    <g id="xtick_32"/>
    <g id="xtick_33"/>
    <g id="xtick_34"/>
    <g id="xtick_35"/>
    <g id="xtick_36"/>
    <g id="xtick_37"/>
    <g id="xtick_38"/>
    <g id="xtick_39"/>
    <g id="xtick_40"/>
    <g id="xtick_41"/>
    <g id="xtick_42"/>
    <g id="xtick_43"/>
    <g id="xtick_44"/>
    <g id="xtick_45"/>
    <g id="xtick_46"/>
    <g id="xtick_47"/>
    <g id="xtick_48"/>
    <g id="xtick_49"/>
    <g id="xtick_50"/>
    <g id="xtick_51"/>
    <g id="xtick_52"/>
    <g id="xtick_53"/>
    <g id="xtick_54"/>
    <g id="xtick_55"/>
    <g id="xtick_56"/>
    <g id="text_19">
     <!-- batch size -->
     <g style="fill:#262626;" transform="translate(534.553968 372.042728)scale(0.1 -0.1)">
      <use xlink:href="#ArialMT-62"/>
      <use x="55.615234" xlink:href="#ArialMT-61"/>
      <use x="111.230469" xlink:href="#ArialMT-74"/>
      <use x="139.013672" xlink:href="#ArialMT-63"/>
      <use x="189.013672" xlink:href="#ArialMT-68"/>
      <use x="244.628906" xlink:href="#ArialMT-20"/>
      <use x="272.412109" xlink:href="#ArialMT-73"/>
      <use x="322.412109" xlink:href="#ArialMT-69"/>
      <use x="344.628906" xlink:href="#ArialMT-7a"/>
      <use x="394.628906" xlink:href="#ArialMT-65"/>
     </g>
    </g>
   </g>
   <g id="matplotlib.axis_4">
    <g id="ytick_10">
     <g id="line2d_22">
      <path clip-path="url(#pd42f67466a)" d="M 393.97327 317.766285 
L 720.15654 317.766285 
" style="fill:none;stroke:#cccccc;stroke-linecap:round;stroke-width:0.8;"/>
     </g>
    </g>
    <g id="ytick_11">
     <g id="line2d_23">
      <path clip-path="url(#pd42f67466a)" d="M 393.97327 285.081344 
L 720.15654 285.081344 
" style="fill:none;stroke:#cccccc;stroke-linecap:round;stroke-width:0.8;"/>
     </g>
    </g>
    <g id="ytick_12">
     <g id="line2d_24">
      <path clip-path="url(#pd42f67466a)" d="M 393.97327 252.396403 
L 720.15654 252.396403 
" style="fill:none;stroke:#cccccc;stroke-linecap:round;stroke-width:0.8;"/>
     </g>
    </g>
    <g id="ytick_13">
     <g id="line2d_25">
      <path clip-path="url(#pd42f67466a)" d="M 393.97327 219.711462 
L 720.15654 219.711462 
" style="fill:none;stroke:#cccccc;stroke-linecap:round;stroke-width:0.8;"/>
     </g>
    </g>
    <g id="ytick_14">
     <g id="line2d_26">
      <path clip-path="url(#pd42f67466a)" d="M 393.97327 187.026521 
L 720.15654 187.026521 
" style="fill:none;stroke:#cccccc;stroke-linecap:round;stroke-width:0.8;"/>
     </g>
    </g>
    <g id="ytick_15">
     <g id="line2d_27">
      <path clip-path="url(#pd42f67466a)" d="M 393.97327 154.341579 
L 720.15654 154.341579 
" style="fill:none;stroke:#cccccc;stroke-linecap:round;stroke-width:0.8;"/>
     </g>
    </g>
    <g id="ytick_16">
     <g id="line2d_28">
      <path clip-path="url(#pd42f67466a)" d="M 393.97327 121.656638 
L 720.15654 121.656638 
" style="fill:none;stroke:#cccccc;stroke-linecap:round;stroke-width:0.8;"/>
     </g>
    </g>
    <g id="ytick_17">
     <g id="line2d_29">
      <path clip-path="url(#pd42f67466a)" d="M 393.97327 88.971697 
L 720.15654 88.971697 
" style="fill:none;stroke:#cccccc;stroke-linecap:round;stroke-width:0.8;"/>
     </g>
    </g>
    <g id="ytick_18">
     <g id="line2d_30">
      <path clip-path="url(#pd42f67466a)" d="M 393.97327 56.286756 
L 720.15654 56.286756 
" style="fill:none;stroke:#cccccc;stroke-linecap:round;stroke-width:0.8;"/>
     </g>
    </g>
   </g>
   <g id="PolyCollection_4">
    <defs>
     <path d="M 408.799782 -98.483138 
L 408.799782 -95.865733 
L 438.452807 -100.82087 
L 468.105831 -106.242579 
L 497.758856 -102.079909 
L 527.41188 -106.75835 
L 557.064905 -112.62003 
L 586.71793 -98.635399 
L 616.370954 -121.139691 
L 646.023979 -127.058254 
L 646.023979 -128.900361 
L 646.023979 -128.900361 
L 616.370954 -123.68901 
L 586.71793 -106.829363 
L 557.064905 -115.351371 
L 527.41188 -111.470055 
L 497.758856 -103.412565 
L 468.105831 -108.666426 
L 438.452807 -104.006288 
L 408.799782 -98.483138 
z
" id="mc5eec2002e" style="stroke:#1f77b4;stroke-opacity:0.2;"/>
    </defs>
    <g clip-path="url(#pd42f67466a)">
     <use style="fill:#1f77b4;fill-opacity:0.2;stroke:#1f77b4;stroke-opacity:0.2;" x="0" xlink:href="#mc5eec2002e" y="388.8"/>
    </g>
   </g>
   <g id="PolyCollection_5">
    <defs>
     <path d="M 408.799782 -218.031988 
L 408.799782 -198.539011 
L 438.452807 -118.599085 
L 468.105831 -213.078776 
L 497.758856 -294.487268 
L 527.41188 -205.916719 
L 557.064905 -209.974539 
L 586.71793 -235.277259 
L 616.370954 -110.956677 
L 646.023979 -177.086958 
L 646.023979 -192.848509 
L 646.023979 -192.848509 
L 616.370954 -125.111257 
L 586.71793 -236.983169 
L 557.064905 -225.514062 
L 527.41188 -230.015403 
L 497.758856 -321.791516 
L 468.105831 -240.508247 
L 438.452807 -132.410665 
L 408.799782 -218.031988 
z
" id="m771fc255fa" style="stroke:#ff7f0e;stroke-opacity:0.2;"/>
    </defs>
    <g clip-path="url(#pd42f67466a)">
     <use style="fill:#ff7f0e;fill-opacity:0.2;stroke:#ff7f0e;stroke-opacity:0.2;" x="0" xlink:href="#m771fc255fa" y="388.8"/>
    </g>
   </g>
   <g id="PolyCollection_6">
    <defs>
     <path d="M 408.799782 -74.447964 
L 408.799782 -74.193754 
L 438.452807 -72.042996 
L 468.105831 -70.482272 
L 497.758856 -69.003816 
L 527.41188 -66.206257 
L 557.064905 -63.246558 
L 586.71793 -61.792971 
L 616.370954 -61.317271 
L 646.023979 -63.404929 
L 646.023979 -63.555591 
L 646.023979 -63.555591 
L 616.370954 -61.409165 
L 586.71793 -61.895232 
L 557.064905 -63.333652 
L 527.41188 -66.361622 
L 497.758856 -69.24079 
L 468.105831 -70.72271 
L 438.452807 -72.260885 
L 408.799782 -74.447964 
z
" id="m79e348c4e9" style="stroke:#2ca02c;stroke-opacity:0.2;"/>
    </defs>
    <g clip-path="url(#pd42f67466a)">
     <use style="fill:#2ca02c;fill-opacity:0.2;stroke:#2ca02c;stroke-opacity:0.2;" x="0" xlink:href="#m79e348c4e9" y="388.8"/>
    </g>
   </g>
   <g id="line2d_31">
    <path clip-path="url(#pd42f67466a)" d="M 408.799782 291.718031 
L 438.452807 286.57991 
L 468.105831 281.378777 
L 497.758856 286.058809 
L 527.41188 279.973764 
L 557.064905 274.824694 
L 586.71793 286.508981 
L 616.370954 266.446713 
L 646.023979 260.840409 
" style="fill:none;stroke:#1f77b4;stroke-linecap:round;stroke-width:1.5;"/>
   </g>
   <g id="line2d_32">
    <path clip-path="url(#pd42f67466a)" d="M 408.799782 179.758086 
L 438.452807 263.26457 
L 468.105831 162.29675 
L 497.758856 81.933062 
L 527.41188 171.731724 
L 557.064905 170.928342 
L 586.71793 152.659065 
L 616.370954 271.219948 
L 646.023979 203.69928 
" style="fill:none;stroke:#ff7f0e;stroke-linecap:round;stroke-width:1.5;"/>
   </g>
   <g id="line2d_33">
    <path clip-path="url(#pd42f67466a)" d="M 408.799782 314.483588 
L 438.452807 316.652456 
L 468.105831 318.19523 
L 497.758856 319.684899 
L 527.41188 322.517258 
L 557.064905 325.508736 
L 586.71793 326.956473 
L 616.370954 327.435779 
L 646.023979 325.322368 
" style="fill:none;stroke:#2ca02c;stroke-linecap:round;stroke-width:1.5;"/>
   </g>
   <g id="patch_6">
    <path d="M 393.97327 341.584915 
L 393.97327 53.933416 
" style="fill:none;stroke:#cccccc;stroke-linecap:square;stroke-linejoin:miter;stroke-width:0.8;"/>
   </g>
   <g id="patch_7">
    <path d="M 393.97327 341.584915 
L 720.15654 341.584915 
" style="fill:none;stroke:#cccccc;stroke-linecap:square;stroke-linejoin:miter;stroke-width:0.8;"/>
   </g>
   <g id="text_20">
    <!-- dataset = nations -->
    <g style="fill:#262626;" transform="translate(518.844593 47.933416)scale(0.1 -0.1)">
     <use xlink:href="#ArialMT-64"/>
     <use x="55.615234" xlink:href="#ArialMT-61"/>
     <use x="111.230469" xlink:href="#ArialMT-74"/>
     <use x="139.013672" xlink:href="#ArialMT-61"/>
     <use x="194.628906" xlink:href="#ArialMT-73"/>
     <use x="244.628906" xlink:href="#ArialMT-65"/>
     <use x="300.244141" xlink:href="#ArialMT-74"/>
     <use x="328.027344" xlink:href="#ArialMT-20"/>
     <use x="355.810547" xlink:href="#ArialMT-3d"/>
     <use x="414.208984" xlink:href="#ArialMT-20"/>
     <use x="441.992188" xlink:href="#ArialMT-6e"/>
     <use x="497.607422" xlink:href="#ArialMT-61"/>
     <use x="553.222656" xlink:href="#ArialMT-74"/>
     <use x="581.005859" xlink:href="#ArialMT-69"/>
     <use x="603.222656" xlink:href="#ArialMT-6f"/>
     <use x="658.837891" xlink:href="#ArialMT-6e"/>
     <use x="714.453125" xlink:href="#ArialMT-73"/>
    </g>
   </g>
  </g>
  <g id="axes_3">
   <g id="patch_8">
    <path d="M 730.95654 341.584915 
L 1057.13981 341.584915 
L 1057.13981 53.933416 
L 730.95654 53.933416 
z
" style="fill:#ffffff;"/>
   </g>
   <g id="matplotlib.axis_5">
    <g id="xtick_57">
     <g id="line2d_34">
      <path clip-path="url(#p0795793843)" d="M 814.635243 341.584915 
L 814.635243 53.933416 
" style="fill:none;stroke:#cccccc;stroke-linecap:round;stroke-width:0.8;"/>
     </g>
     <g id="text_21">
      <!-- $\mathdefault{10^{1}}$ -->
      <g style="fill:#262626;" transform="translate(806.785243 358.897415)scale(0.1 -0.1)">
       <use transform="translate(0 0.99375)" xlink:href="#ArialMT-31"/>
       <use transform="translate(55.615234 0.99375)" xlink:href="#ArialMT-30"/>
       <use transform="translate(112.972813 70.6875)scale(0.7)" xlink:href="#ArialMT-31"/>
      </g>
     </g>
    </g>
    <g id="xtick_58">
     <g id="line2d_35">
      <path clip-path="url(#p0795793843)" d="M 913.140458 341.584915 
L 913.140458 53.933416 
" style="fill:none;stroke:#cccccc;stroke-linecap:round;stroke-width:0.8;"/>
     </g>
     <g id="text_22">
      <!-- $\mathdefault{10^{2}}$ -->
      <g style="fill:#262626;" transform="translate(905.290458 358.897415)scale(0.1 -0.1)">
       <use transform="translate(0 0.99375)" xlink:href="#ArialMT-31"/>
       <use transform="translate(55.615234 0.99375)" xlink:href="#ArialMT-30"/>
       <use transform="translate(112.972813 70.6875)scale(0.7)" xlink:href="#ArialMT-32"/>
      </g>
     </g>
    </g>
    <g id="xtick_59">
     <g id="line2d_36">
      <path clip-path="url(#p0795793843)" d="M 1011.645674 341.584915 
L 1011.645674 53.933416 
" style="fill:none;stroke:#cccccc;stroke-linecap:round;stroke-width:0.8;"/>
     </g>
     <g id="text_23">
      <!-- $\mathdefault{10^{3}}$ -->
      <g style="fill:#262626;" transform="translate(1003.795674 358.897415)scale(0.1 -0.1)">
       <use transform="translate(0 0.99375)" xlink:href="#ArialMT-31"/>
       <use transform="translate(55.615234 0.99375)" xlink:href="#ArialMT-30"/>
       <use transform="translate(112.972813 70.6875)scale(0.7)" xlink:href="#ArialMT-33"/>
      </g>
     </g>
    </g>
    <g id="xtick_60"/>
    <g id="xtick_61"/>
    <g id="xtick_62"/>
    <g id="xtick_63"/>
    <g id="xtick_64"/>
    <g id="xtick_65"/>
    <g id="xtick_66"/>
    <g id="xtick_67"/>
    <g id="xtick_68"/>
    <g id="xtick_69"/>
    <g id="xtick_70"/>
    <g id="xtick_71"/>
    <g id="xtick_72"/>
    <g id="xtick_73"/>
    <g id="xtick_74"/>
    <g id="xtick_75"/>
    <g id="xtick_76"/>
    <g id="xtick_77"/>
    <g id="xtick_78"/>
    <g id="xtick_79"/>
    <g id="xtick_80"/>
    <g id="xtick_81"/>
    <g id="xtick_82"/>
    <g id="xtick_83"/>
    <g id="xtick_84"/>
    <g id="text_24">
     <!-- batch size -->
     <g style="fill:#262626;" transform="translate(871.537238 372.042728)scale(0.1 -0.1)">
      <use xlink:href="#ArialMT-62"/>
      <use x="55.615234" xlink:href="#ArialMT-61"/>
      <use x="111.230469" xlink:href="#ArialMT-74"/>
      <use x="139.013672" xlink:href="#ArialMT-63"/>
      <use x="189.013672" xlink:href="#ArialMT-68"/>
      <use x="244.628906" xlink:href="#ArialMT-20"/>
      <use x="272.412109" xlink:href="#ArialMT-73"/>
      <use x="322.412109" xlink:href="#ArialMT-69"/>
      <use x="344.628906" xlink:href="#ArialMT-7a"/>
      <use x="394.628906" xlink:href="#ArialMT-65"/>
     </g>
    </g>
   </g>
   <g id="matplotlib.axis_6">
    <g id="ytick_19">
     <g id="line2d_37">
      <path clip-path="url(#p0795793843)" d="M 730.95654 317.766285 
L 1057.13981 317.766285 
" style="fill:none;stroke:#cccccc;stroke-linecap:round;stroke-width:0.8;"/>
     </g>
    </g>
    <g id="ytick_20">
     <g id="line2d_38">
      <path clip-path="url(#p0795793843)" d="M 730.95654 285.081344 
L 1057.13981 285.081344 
" style="fill:none;stroke:#cccccc;stroke-linecap:round;stroke-width:0.8;"/>
     </g>
    </g>
    <g id="ytick_21">
     <g id="line2d_39">
      <path clip-path="url(#p0795793843)" d="M 730.95654 252.396403 
L 1057.13981 252.396403 
" style="fill:none;stroke:#cccccc;stroke-linecap:round;stroke-width:0.8;"/>
     </g>
    </g>
    <g id="ytick_22">
     <g id="line2d_40">
      <path clip-path="url(#p0795793843)" d="M 730.95654 219.711462 
L 1057.13981 219.711462 
" style="fill:none;stroke:#cccccc;stroke-linecap:round;stroke-width:0.8;"/>
     </g>
    </g>
    <g id="ytick_23">
     <g id="line2d_41">
      <path clip-path="url(#p0795793843)" d="M 730.95654 187.026521 
L 1057.13981 187.026521 
" style="fill:none;stroke:#cccccc;stroke-linecap:round;stroke-width:0.8;"/>
     </g>
    </g>
    <g id="ytick_24">
     <g id="line2d_42">
      <path clip-path="url(#p0795793843)" d="M 730.95654 154.341579 
L 1057.13981 154.341579 
" style="fill:none;stroke:#cccccc;stroke-linecap:round;stroke-width:0.8;"/>
     </g>
    </g>
    <g id="ytick_25">
     <g id="line2d_43">
      <path clip-path="url(#p0795793843)" d="M 730.95654 121.656638 
L 1057.13981 121.656638 
" style="fill:none;stroke:#cccccc;stroke-linecap:round;stroke-width:0.8;"/>
     </g>
    </g>
    <g id="ytick_26">
     <g id="line2d_44">
      <path clip-path="url(#p0795793843)" d="M 730.95654 88.971697 
L 1057.13981 88.971697 
" style="fill:none;stroke:#cccccc;stroke-linecap:round;stroke-width:0.8;"/>
     </g>
    </g>
    <g id="ytick_27">
     <g id="line2d_45">
      <path clip-path="url(#p0795793843)" d="M 730.95654 56.286756 
L 1057.13981 56.286756 
" style="fill:none;stroke:#cccccc;stroke-linecap:round;stroke-width:0.8;"/>
     </g>
    </g>
   </g>
   <g id="PolyCollection_7">
    <defs>
     <path d="M 745.783052 -66.991943 
L 745.783052 -66.868929 
L 775.436077 -66.0838 
L 805.089101 -65.060826 
L 834.742126 -66.243481 
L 864.39515 -67.338305 
L 894.048175 -68.888605 
L 923.7012 -69.897669 
L 953.354224 -72.529571 
L 983.007249 -76.360843 
L 1012.660273 -86.064935 
L 1042.313298 -107.050408 
L 1042.313298 -107.356435 
L 1042.313298 -107.356435 
L 1012.660273 -86.244634 
L 983.007249 -76.4762 
L 953.354224 -72.668726 
L 923.7012 -70.046592 
L 894.048175 -69.017159 
L 864.39515 -67.512319 
L 834.742126 -66.475909 
L 805.089101 -65.12872 
L 775.436077 -66.173803 
L 745.783052 -66.991943 
z
" id="m49bf83064f" style="stroke:#1f77b4;stroke-opacity:0.2;"/>
    </defs>
    <g clip-path="url(#p0795793843)">
     <use style="fill:#1f77b4;fill-opacity:0.2;stroke:#1f77b4;stroke-opacity:0.2;" x="0" xlink:href="#m49bf83064f" y="388.8"/>
    </g>
   </g>
   <g id="PolyCollection_8">
    <defs>
     <path d="M 745.783052 -140.975823 
L 745.783052 -140.507405 
L 775.436077 -138.650702 
L 805.089101 -134.852763 
L 834.742126 -131.649034 
L 864.39515 -131.13413 
L 894.048175 -132.498546 
L 923.7012 -136.10705 
L 953.354224 -112.644806 
L 983.007249 -116.44006 
L 1012.660273 -166.982916 
L 1042.313298 -67.349164 
L 1042.313298 -71.141258 
L 1042.313298 -71.141258 
L 1012.660273 -167.726916 
L 983.007249 -123.312913 
L 953.354224 -119.01013 
L 923.7012 -136.728874 
L 894.048175 -132.983273 
L 864.39515 -131.568068 
L 834.742126 -132.017164 
L 805.089101 -135.211696 
L 775.436077 -139.075371 
L 745.783052 -140.975823 
z
" id="m9a01276466" style="stroke:#ff7f0e;stroke-opacity:0.2;"/>
    </defs>
    <g clip-path="url(#p0795793843)">
     <use style="fill:#ff7f0e;fill-opacity:0.2;stroke:#ff7f0e;stroke-opacity:0.2;" x="0" xlink:href="#m9a01276466" y="388.8"/>
    </g>
   </g>
   <g id="PolyCollection_9">
    <defs>
     <path d="M 745.783052 -61.56318 
L 745.783052 -60.541442 
L 775.436077 -60.290153 
L 805.089101 -61.619965 
L 834.742126 -62.531809 
L 864.39515 -62.848095 
L 894.048175 -63.691396 
L 923.7012 -64.853444 
L 953.354224 -67.307535 
L 983.007249 -71.235307 
L 1012.660273 -77.68557 
L 1042.313298 -89.051269 
L 1042.313298 -89.413625 
L 1042.313298 -89.413625 
L 1012.660273 -77.930408 
L 983.007249 -71.481384 
L 953.354224 -67.48779 
L 923.7012 -65.085013 
L 894.048175 -63.849727 
L 864.39515 -62.950963 
L 834.742126 -62.655485 
L 805.089101 -61.774285 
L 775.436077 -60.408972 
L 745.783052 -61.56318 
z
" id="mf5dabb05d2" style="stroke:#2ca02c;stroke-opacity:0.2;"/>
    </defs>
    <g clip-path="url(#p0795793843)">
     <use style="fill:#2ca02c;fill-opacity:0.2;stroke:#2ca02c;stroke-opacity:0.2;" x="0" xlink:href="#mf5dabb05d2" y="388.8"/>
    </g>
   </g>
   <g id="line2d_46">
    <path clip-path="url(#p0795793843)" d="M 745.783052 321.870175 
L 775.436077 322.672139 
L 805.089101 323.70625 
L 834.742126 322.440682 
L 864.39515 321.374305 
L 894.048175 319.848258 
L 923.7012 318.827214 
L 953.354224 316.204669 
L 983.007249 312.381775 
L 1012.660273 302.644275 
L 1042.313298 281.598835 
" style="fill:none;stroke:#1f77b4;stroke-linecap:round;stroke-width:1.5;"/>
   </g>
   <g id="line2d_47">
    <path clip-path="url(#p0795793843)" d="M 745.783052 248.070502 
L 775.436077 249.93355 
L 805.089101 253.764851 
L 834.742126 256.964397 
L 864.39515 257.467719 
L 894.048175 256.072368 
L 923.7012 252.385659 
L 953.354224 273.185958 
L 983.007249 268.985049 
L 1012.660273 221.465576 
L 1042.313298 319.5174 
" style="fill:none;stroke:#ff7f0e;stroke-linecap:round;stroke-width:1.5;"/>
   </g>
   <g id="line2d_48">
    <path clip-path="url(#p0795793843)" d="M 745.783052 327.757977 
L 775.436077 328.449377 
L 805.089101 327.103819 
L 834.742126 326.208995 
L 864.39515 325.900357 
L 894.048175 325.028685 
L 923.7012 323.83338 
L 953.354224 321.406168 
L 983.007249 317.444655 
L 1012.660273 310.995117 
L 1042.313298 299.572735 
" style="fill:none;stroke:#2ca02c;stroke-linecap:round;stroke-width:1.5;"/>
   </g>
   <g id="patch_9">
    <path d="M 730.95654 341.584915 
L 730.95654 53.933416 
" style="fill:none;stroke:#cccccc;stroke-linecap:square;stroke-linejoin:miter;stroke-width:0.8;"/>
   </g>
   <g id="patch_10">
    <path d="M 730.95654 341.584915 
L 1057.13981 341.584915 
" style="fill:none;stroke:#cccccc;stroke-linecap:square;stroke-linejoin:miter;stroke-width:0.8;"/>
   </g>
   <g id="text_25">
    <!-- dataset = umls -->
    <g style="fill:#262626;" transform="translate(861.393488 47.933416)scale(0.1 -0.1)">
     <defs>
      <path d="M 409 0 
L 409 4581 
L 972 4581 
L 972 0 
L 409 0 
z
" id="ArialMT-6c" transform="scale(0.015625)"/>
     </defs>
     <use xlink:href="#ArialMT-64"/>
     <use x="55.615234" xlink:href="#ArialMT-61"/>
     <use x="111.230469" xlink:href="#ArialMT-74"/>
     <use x="139.013672" xlink:href="#ArialMT-61"/>
     <use x="194.628906" xlink:href="#ArialMT-73"/>
     <use x="244.628906" xlink:href="#ArialMT-65"/>
     <use x="300.244141" xlink:href="#ArialMT-74"/>
     <use x="328.027344" xlink:href="#ArialMT-20"/>
     <use x="355.810547" xlink:href="#ArialMT-3d"/>
     <use x="414.208984" xlink:href="#ArialMT-20"/>
     <use x="441.992188" xlink:href="#ArialMT-75"/>
     <use x="497.607422" xlink:href="#ArialMT-6d"/>
     <use x="580.908203" xlink:href="#ArialMT-6c"/>
     <use x="603.125" xlink:href="#ArialMT-73"/>
    </g>
   </g>
  </g>
  <g id="text_26">
   <!-- Time Results from 49a86a6d (negative-sampling-in-data-loader) -->
   <g style="fill:#262626;" transform="translate(331.176094 20.879437)scale(0.18 -0.18)">
    <defs>
     <path d="M 1659 0 
L 1659 4041 
L 150 4041 
L 150 4581 
L 3781 4581 
L 3781 4041 
L 2266 4041 
L 2266 0 
L 1659 0 
z
" id="ArialMT-54" transform="scale(0.015625)"/>
     <path d="M 503 0 
L 503 4581 
L 2534 4581 
Q 3147 4581 3465 4457 
Q 3784 4334 3975 4021 
Q 4166 3709 4166 3331 
Q 4166 2844 3850 2509 
Q 3534 2175 2875 2084 
Q 3116 1969 3241 1856 
Q 3506 1613 3744 1247 
L 4541 0 
L 3778 0 
L 3172 953 
Q 2906 1366 2734 1584 
Q 2563 1803 2427 1890 
Q 2291 1978 2150 2013 
Q 2047 2034 1813 2034 
L 1109 2034 
L 1109 0 
L 503 0 
z
M 1109 2559 
L 2413 2559 
Q 2828 2559 3062 2645 
Q 3297 2731 3419 2920 
Q 3541 3109 3541 3331 
Q 3541 3656 3305 3865 
Q 3069 4075 2559 4075 
L 1109 4075 
L 1109 2559 
z
" id="ArialMT-52" transform="scale(0.015625)"/>
     <path d="M 556 0 
L 556 2881 
L 59 2881 
L 59 3319 
L 556 3319 
L 556 3672 
Q 556 4006 616 4169 
Q 697 4388 901 4523 
Q 1106 4659 1475 4659 
Q 1713 4659 2000 4603 
L 1916 4113 
Q 1741 4144 1584 4144 
Q 1328 4144 1222 4034 
Q 1116 3925 1116 3625 
L 1116 3319 
L 1763 3319 
L 1763 2881 
L 1116 2881 
L 1116 0 
L 556 0 
z
" id="ArialMT-66" transform="scale(0.015625)"/>
     <path d="M 350 1059 
L 891 1109 
Q 959 728 1153 556 
Q 1347 384 1650 384 
Q 1909 384 2104 503 
Q 2300 622 2425 820 
Q 2550 1019 2634 1356 
Q 2719 1694 2719 2044 
Q 2719 2081 2716 2156 
Q 2547 1888 2255 1720 
Q 1963 1553 1622 1553 
Q 1053 1553 659 1965 
Q 266 2378 266 3053 
Q 266 3750 677 4175 
Q 1088 4600 1706 4600 
Q 2153 4600 2523 4359 
Q 2894 4119 3086 3673 
Q 3278 3228 3278 2384 
Q 3278 1506 3087 986 
Q 2897 466 2520 194 
Q 2144 -78 1638 -78 
Q 1100 -78 759 220 
Q 419 519 350 1059 
z
M 2653 3081 
Q 2653 3566 2395 3850 
Q 2138 4134 1775 4134 
Q 1400 4134 1122 3828 
Q 844 3522 844 3034 
Q 844 2597 1108 2323 
Q 1372 2050 1759 2050 
Q 2150 2050 2401 2323 
Q 2653 2597 2653 3081 
z
" id="ArialMT-39" transform="scale(0.015625)"/>
     <path d="M 319 -275 
L 866 -356 
Q 900 -609 1056 -725 
Q 1266 -881 1628 -881 
Q 2019 -881 2231 -725 
Q 2444 -569 2519 -288 
Q 2563 -116 2559 434 
Q 2191 0 1641 0 
Q 956 0 581 494 
Q 206 988 206 1678 
Q 206 2153 378 2554 
Q 550 2956 876 3175 
Q 1203 3394 1644 3394 
Q 2231 3394 2613 2919 
L 2613 3319 
L 3131 3319 
L 3131 450 
Q 3131 -325 2973 -648 
Q 2816 -972 2473 -1159 
Q 2131 -1347 1631 -1347 
Q 1038 -1347 672 -1080 
Q 306 -813 319 -275 
z
M 784 1719 
Q 784 1066 1043 766 
Q 1303 466 1694 466 
Q 2081 466 2343 764 
Q 2606 1063 2606 1700 
Q 2606 2309 2336 2618 
Q 2066 2928 1684 2928 
Q 1309 2928 1046 2623 
Q 784 2319 784 1719 
z
" id="ArialMT-67" transform="scale(0.015625)"/>
     <path d="M 1344 0 
L 81 3319 
L 675 3319 
L 1388 1331 
Q 1503 1009 1600 663 
Q 1675 925 1809 1294 
L 2547 3319 
L 3125 3319 
L 1869 0 
L 1344 0 
z
" id="ArialMT-76" transform="scale(0.015625)"/>
     <path d="M 203 1375 
L 203 1941 
L 1931 1941 
L 1931 1375 
L 203 1375 
z
" id="ArialMT-2d" transform="scale(0.015625)"/>
     <path d="M 422 -1272 
L 422 3319 
L 934 3319 
L 934 2888 
Q 1116 3141 1344 3267 
Q 1572 3394 1897 3394 
Q 2322 3394 2647 3175 
Q 2972 2956 3137 2557 
Q 3303 2159 3303 1684 
Q 3303 1175 3120 767 
Q 2938 359 2589 142 
Q 2241 -75 1856 -75 
Q 1575 -75 1351 44 
Q 1128 163 984 344 
L 984 -1272 
L 422 -1272 
z
M 931 1641 
Q 931 1000 1190 694 
Q 1450 388 1819 388 
Q 2194 388 2461 705 
Q 2728 1022 2728 1688 
Q 2728 2322 2467 2637 
Q 2206 2953 1844 2953 
Q 1484 2953 1207 2617 
Q 931 2281 931 1641 
z
" id="ArialMT-70" transform="scale(0.015625)"/>
    </defs>
    <use xlink:href="#ArialMT-54"/>
    <use x="57.333984" xlink:href="#ArialMT-69"/>
    <use x="79.550781" xlink:href="#ArialMT-6d"/>
    <use x="162.851562" xlink:href="#ArialMT-65"/>
    <use x="218.466797" xlink:href="#ArialMT-20"/>
    <use x="246.25" xlink:href="#ArialMT-52"/>
    <use x="318.466797" xlink:href="#ArialMT-65"/>
    <use x="374.082031" xlink:href="#ArialMT-73"/>
    <use x="424.082031" xlink:href="#ArialMT-75"/>
    <use x="479.697266" xlink:href="#ArialMT-6c"/>
    <use x="501.914062" xlink:href="#ArialMT-74"/>
    <use x="529.697266" xlink:href="#ArialMT-73"/>
    <use x="579.697266" xlink:href="#ArialMT-20"/>
    <use x="607.480469" xlink:href="#ArialMT-66"/>
    <use x="635.263672" xlink:href="#ArialMT-72"/>
    <use x="668.564453" xlink:href="#ArialMT-6f"/>
    <use x="724.179688" xlink:href="#ArialMT-6d"/>
    <use x="807.480469" xlink:href="#ArialMT-20"/>
    <use x="835.263672" xlink:href="#ArialMT-34"/>
    <use x="890.878906" xlink:href="#ArialMT-39"/>
    <use x="946.494141" xlink:href="#ArialMT-61"/>
    <use x="1002.109375" xlink:href="#ArialMT-38"/>
    <use x="1057.724609" xlink:href="#ArialMT-36"/>
    <use x="1113.339844" xlink:href="#ArialMT-61"/>
    <use x="1168.955078" xlink:href="#ArialMT-36"/>
    <use x="1224.570312" xlink:href="#ArialMT-64"/>
    <use x="1280.185547" xlink:href="#ArialMT-20"/>
    <use x="1307.96875" xlink:href="#ArialMT-28"/>
    <use x="1341.269531" xlink:href="#ArialMT-6e"/>
    <use x="1396.884766" xlink:href="#ArialMT-65"/>
    <use x="1452.5" xlink:href="#ArialMT-67"/>
    <use x="1508.115234" xlink:href="#ArialMT-61"/>
    <use x="1563.730469" xlink:href="#ArialMT-74"/>
    <use x="1591.513672" xlink:href="#ArialMT-69"/>
    <use x="1613.730469" xlink:href="#ArialMT-76"/>
    <use x="1663.730469" xlink:href="#ArialMT-65"/>
    <use x="1719.345703" xlink:href="#ArialMT-2d"/>
    <use x="1752.646484" xlink:href="#ArialMT-73"/>
    <use x="1802.646484" xlink:href="#ArialMT-61"/>
    <use x="1858.261719" xlink:href="#ArialMT-6d"/>
    <use x="1941.5625" xlink:href="#ArialMT-70"/>
    <use x="1997.177734" xlink:href="#ArialMT-6c"/>
    <use x="2019.394531" xlink:href="#ArialMT-69"/>
    <use x="2041.611328" xlink:href="#ArialMT-6e"/>
    <use x="2097.226562" xlink:href="#ArialMT-67"/>
    <use x="2152.841797" xlink:href="#ArialMT-2d"/>
    <use x="2186.142578" xlink:href="#ArialMT-69"/>
    <use x="2208.359375" xlink:href="#ArialMT-6e"/>
    <use x="2263.974609" xlink:href="#ArialMT-2d"/>
    <use x="2297.275391" xlink:href="#ArialMT-64"/>
    <use x="2352.890625" xlink:href="#ArialMT-61"/>
    <use x="2408.505859" xlink:href="#ArialMT-74"/>
    <use x="2436.289062" xlink:href="#ArialMT-61"/>
    <use x="2491.904297" xlink:href="#ArialMT-2d"/>
    <use x="2525.205078" xlink:href="#ArialMT-6c"/>
    <use x="2547.421875" xlink:href="#ArialMT-6f"/>
    <use x="2603.037109" xlink:href="#ArialMT-61"/>
    <use x="2658.652344" xlink:href="#ArialMT-64"/>
    <use x="2714.267578" xlink:href="#ArialMT-65"/>
    <use x="2769.882812" xlink:href="#ArialMT-72"/>
    <use x="2803.183594" xlink:href="#ArialMT-29"/>
   </g>
  </g>
  <g id="legend_1">
   <g id="text_27">
    <!-- sampler -->
    <g style="fill:#262626;" transform="translate(1103.465156 175.708594)scale(0.1 -0.1)">
     <use xlink:href="#ArialMT-73"/>
     <use x="50" xlink:href="#ArialMT-61"/>
     <use x="105.615234" xlink:href="#ArialMT-6d"/>
     <use x="188.916016" xlink:href="#ArialMT-70"/>
     <use x="244.53125" xlink:href="#ArialMT-6c"/>
     <use x="266.748047" xlink:href="#ArialMT-65"/>
     <use x="322.363281" xlink:href="#ArialMT-72"/>
    </g>
   </g>
   <g id="line2d_49">
    <path d="M 1078.614375 186.353906 
L 1098.614375 186.353906 
" style="fill:none;stroke:#1f77b4;stroke-linecap:round;stroke-width:1.5;"/>
   </g>
   <g id="line2d_50"/>
   <g id="text_28">
    <!-- bernoulli -->
    <g style="fill:#262626;" transform="translate(1106.614375 189.853906)scale(0.1 -0.1)">
     <use xlink:href="#ArialMT-62"/>
     <use x="55.615234" xlink:href="#ArialMT-65"/>
     <use x="111.230469" xlink:href="#ArialMT-72"/>
     <use x="144.53125" xlink:href="#ArialMT-6e"/>
     <use x="200.146484" xlink:href="#ArialMT-6f"/>
     <use x="255.761719" xlink:href="#ArialMT-75"/>
     <use x="311.376953" xlink:href="#ArialMT-6c"/>
     <use x="333.59375" xlink:href="#ArialMT-6c"/>
     <use x="355.810547" xlink:href="#ArialMT-69"/>
    </g>
   </g>
   <g id="line2d_51">
    <path d="M 1078.614375 200.499219 
L 1098.614375 200.499219 
" style="fill:none;stroke:#ff7f0e;stroke-linecap:round;stroke-width:1.5;"/>
   </g>
   <g id="line2d_52"/>
   <g id="text_29">
    <!-- basic -->
    <g style="fill:#262626;" transform="translate(1106.614375 203.999219)scale(0.1 -0.1)">
     <use xlink:href="#ArialMT-62"/>
     <use x="55.615234" xlink:href="#ArialMT-61"/>
     <use x="111.230469" xlink:href="#ArialMT-73"/>
     <use x="161.230469" xlink:href="#ArialMT-69"/>
     <use x="183.447266" xlink:href="#ArialMT-63"/>
    </g>
   </g>
   <g id="line2d_53">
    <path d="M 1078.614375 214.644531 
L 1098.614375 214.644531 
" style="fill:none;stroke:#2ca02c;stroke-linecap:round;stroke-width:1.5;"/>
   </g>
   <g id="line2d_54"/>
   <g id="text_30">
    <!-- pseudotyped -->
    <g style="fill:#262626;" transform="translate(1106.614375 218.144531)scale(0.1 -0.1)">
     <defs>
      <path d="M 397 -1278 
L 334 -750 
Q 519 -800 656 -800 
Q 844 -800 956 -737 
Q 1069 -675 1141 -563 
Q 1194 -478 1313 -144 
Q 1328 -97 1363 -6 
L 103 3319 
L 709 3319 
L 1400 1397 
Q 1534 1031 1641 628 
Q 1738 1016 1872 1384 
L 2581 3319 
L 3144 3319 
L 1881 -56 
Q 1678 -603 1566 -809 
Q 1416 -1088 1222 -1217 
Q 1028 -1347 759 -1347 
Q 597 -1347 397 -1278 
z
" id="ArialMT-79" transform="scale(0.015625)"/>
     </defs>
     <use xlink:href="#ArialMT-70"/>
     <use x="55.615234" xlink:href="#ArialMT-73"/>
     <use x="105.615234" xlink:href="#ArialMT-65"/>
     <use x="161.230469" xlink:href="#ArialMT-75"/>
     <use x="216.845703" xlink:href="#ArialMT-64"/>
     <use x="272.460938" xlink:href="#ArialMT-6f"/>
     <use x="328.076172" xlink:href="#ArialMT-74"/>
     <use x="355.859375" xlink:href="#ArialMT-79"/>
     <use x="405.859375" xlink:href="#ArialMT-70"/>
     <use x="461.474609" xlink:href="#ArialMT-65"/>
     <use x="517.089844" xlink:href="#ArialMT-64"/>
    </g>
   </g>
  </g>
 </g>
 <defs>
  <clipPath id="p8fcf27363d">
   <rect height="287.6515" width="326.18327" x="56.99" y="53.933416"/>
  </clipPath>
  <clipPath id="pd42f67466a">
   <rect height="287.6515" width="326.18327" x="393.97327" y="53.933416"/>
  </clipPath>
  <clipPath id="p0795793843">
   <rect height="287.6515" width="326.18327" x="730.95654" y="53.933416"/>
  </clipPath>
 </defs>
</svg>
