<?xml version="1.0" encoding="utf-8" standalone="no"?>
<!DOCTYPE svg PUBLIC "-//W3C//DTD SVG 1.1//EN"
  "http://www.w3.org/Graphics/SVG/1.1/DTD/svg11.dtd">
<svg height="720pt" version="1.1" viewBox="0 0 1532.88 720" width="1532.88pt" xmlns="http://www.w3.org/2000/svg" xmlns:xlink="http://www.w3.org/1999/xlink">
 <metadata>
  <rdf:RDF xmlns:cc="http://creativecommons.org/ns#" xmlns:dc="http://purl.org/dc/elements/1.1/" xmlns:rdf="http://www.w3.org/1999/02/22-rdf-syntax-ns#">
   <cc:Work>
    <dc:type rdf:resource="http://purl.org/dc/dcmitype/StillImage"/>
    <dc:date>2021-05-21T08:36:13.099672</dc:date>
    <dc:format>image/svg+xml</dc:format>
    <dc:creator>
     <cc:Agent>
      <dc:title>Matplotlib v3.4.2, https://matplotlib.org/</dc:title>
     </cc:Agent>
    </dc:creator>
   </cc:Work>
  </rdf:RDF>
 </metadata>
 <defs>
  <style type="text/css">*{stroke-linecap:butt;stroke-linejoin:round;}</style>
 </defs>
 <g id="figure_1">
  <g id="patch_1">
   <path d="M 0 720 
L 1532.88 720 
L 1532.88 0 
L 0 0 
z
" style="fill:#ffffff;"/>
  </g>
  <g id="axes_1">
   <g id="patch_2">
    <path d="M 56.99 325.086625 
L 387.843103 325.086625 
L 387.843103 24.72 
L 56.99 24.72 
z
" style="fill:#ffffff;"/>
   </g>
   <g id="matplotlib.axis_1">
    <g id="xtick_1">
     <g id="line2d_1">
      <path clip-path="url(#pe191e6dd09)" d="M 130.227044 325.086625 
L 130.227044 24.72 
" style="fill:none;stroke:#cccccc;stroke-linecap:round;stroke-width:0.8;"/>
     </g>
    </g>
    <g id="xtick_2">
     <g id="line2d_2">
      <path clip-path="url(#pe191e6dd09)" d="M 213.489939 325.086625 
L 213.489939 24.72 
" style="fill:none;stroke:#cccccc;stroke-linecap:round;stroke-width:0.8;"/>
     </g>
    </g>
    <g id="xtick_3">
     <g id="line2d_3">
      <path clip-path="url(#pe191e6dd09)" d="M 296.752835 325.086625 
L 296.752835 24.72 
" style="fill:none;stroke:#cccccc;stroke-linecap:round;stroke-width:0.8;"/>
     </g>
    </g>
    <g id="xtick_4">
     <g id="line2d_4">
      <path clip-path="url(#pe191e6dd09)" d="M 380.01573 325.086625 
L 380.01573 24.72 
" style="fill:none;stroke:#cccccc;stroke-linecap:round;stroke-width:0.8;"/>
     </g>
    </g>
    <g id="xtick_5"/>
    <g id="xtick_6"/>
    <g id="xtick_7"/>
    <g id="xtick_8"/>
    <g id="xtick_9"/>
    <g id="xtick_10"/>
    <g id="xtick_11"/>
    <g id="xtick_12"/>
    <g id="xtick_13"/>
    <g id="xtick_14"/>
    <g id="xtick_15"/>
    <g id="xtick_16"/>
    <g id="xtick_17"/>
    <g id="xtick_18"/>
    <g id="xtick_19"/>
    <g id="xtick_20"/>
    <g id="xtick_21"/>
    <g id="xtick_22"/>
    <g id="xtick_23"/>
    <g id="xtick_24"/>
    <g id="xtick_25"/>
    <g id="xtick_26"/>
    <g id="xtick_27"/>
    <g id="xtick_28"/>
    <g id="xtick_29"/>
    <g id="xtick_30"/>
    <g id="xtick_31"/>
    <g id="xtick_32"/>
    <g id="xtick_33"/>
    <g id="xtick_34"/>
    <g id="xtick_35"/>
    <g id="xtick_36"/>
   </g>
   <g id="matplotlib.axis_2">
    <g id="ytick_1">
     <g id="line2d_5">
      <path clip-path="url(#pe191e6dd09)" d="M 56.99 282.510609 
L 387.843103 282.510609 
" style="fill:none;stroke:#cccccc;stroke-linecap:round;stroke-width:0.8;"/>
     </g>
     <g id="text_1">
      <!-- 0.002 -->
      <g style="fill:#262626;" transform="translate(24.968125 286.089515)scale(0.1 -0.1)">
       <defs>
        <path d="M 266 2259 
Q 266 3072 433 3567 
Q 600 4063 929 4331 
Q 1259 4600 1759 4600 
Q 2128 4600 2406 4451 
Q 2684 4303 2865 4023 
Q 3047 3744 3150 3342 
Q 3253 2941 3253 2259 
Q 3253 1453 3087 958 
Q 2922 463 2592 192 
Q 2263 -78 1759 -78 
Q 1097 -78 719 397 
Q 266 969 266 2259 
z
M 844 2259 
Q 844 1131 1108 757 
Q 1372 384 1759 384 
Q 2147 384 2411 759 
Q 2675 1134 2675 2259 
Q 2675 3391 2411 3762 
Q 2147 4134 1753 4134 
Q 1366 4134 1134 3806 
Q 844 3388 844 2259 
z
" id="ArialMT-30" transform="scale(0.015625)"/>
        <path d="M 581 0 
L 581 641 
L 1222 641 
L 1222 0 
L 581 0 
z
" id="ArialMT-2e" transform="scale(0.015625)"/>
        <path d="M 3222 541 
L 3222 0 
L 194 0 
Q 188 203 259 391 
Q 375 700 629 1000 
Q 884 1300 1366 1694 
Q 2113 2306 2375 2664 
Q 2638 3022 2638 3341 
Q 2638 3675 2398 3904 
Q 2159 4134 1775 4134 
Q 1369 4134 1125 3890 
Q 881 3647 878 3216 
L 300 3275 
Q 359 3922 746 4261 
Q 1134 4600 1788 4600 
Q 2447 4600 2831 4234 
Q 3216 3869 3216 3328 
Q 3216 3053 3103 2787 
Q 2991 2522 2730 2228 
Q 2469 1934 1863 1422 
Q 1356 997 1212 845 
Q 1069 694 975 541 
L 3222 541 
z
" id="ArialMT-32" transform="scale(0.015625)"/>
       </defs>
       <use xlink:href="#ArialMT-30"/>
       <use x="55.615234" xlink:href="#ArialMT-2e"/>
       <use x="83.398438" xlink:href="#ArialMT-30"/>
       <use x="139.013672" xlink:href="#ArialMT-30"/>
       <use x="194.628906" xlink:href="#ArialMT-32"/>
      </g>
     </g>
    </g>
    <g id="ytick_2">
     <g id="line2d_6">
      <path clip-path="url(#pe191e6dd09)" d="M 56.99 236.163426 
L 387.843103 236.163426 
" style="fill:none;stroke:#cccccc;stroke-linecap:round;stroke-width:0.8;"/>
     </g>
     <g id="text_2">
      <!-- 0.004 -->
      <g style="fill:#262626;" transform="translate(24.968125 239.742332)scale(0.1 -0.1)">
       <defs>
        <path d="M 2069 0 
L 2069 1097 
L 81 1097 
L 81 1613 
L 2172 4581 
L 2631 4581 
L 2631 1613 
L 3250 1613 
L 3250 1097 
L 2631 1097 
L 2631 0 
L 2069 0 
z
M 2069 1613 
L 2069 3678 
L 634 1613 
L 2069 1613 
z
" id="ArialMT-34" transform="scale(0.015625)"/>
       </defs>
       <use xlink:href="#ArialMT-30"/>
       <use x="55.615234" xlink:href="#ArialMT-2e"/>
       <use x="83.398438" xlink:href="#ArialMT-30"/>
       <use x="139.013672" xlink:href="#ArialMT-30"/>
       <use x="194.628906" xlink:href="#ArialMT-34"/>
      </g>
     </g>
    </g>
    <g id="ytick_3">
     <g id="line2d_7">
      <path clip-path="url(#pe191e6dd09)" d="M 56.99 189.816242 
L 387.843103 189.816242 
" style="fill:none;stroke:#cccccc;stroke-linecap:round;stroke-width:0.8;"/>
     </g>
     <g id="text_3">
      <!-- 0.006 -->
      <g style="fill:#262626;" transform="translate(24.968125 193.395149)scale(0.1 -0.1)">
       <defs>
        <path d="M 3184 3459 
L 2625 3416 
Q 2550 3747 2413 3897 
Q 2184 4138 1850 4138 
Q 1581 4138 1378 3988 
Q 1113 3794 959 3422 
Q 806 3050 800 2363 
Q 1003 2672 1297 2822 
Q 1591 2972 1913 2972 
Q 2475 2972 2870 2558 
Q 3266 2144 3266 1488 
Q 3266 1056 3080 686 
Q 2894 316 2569 119 
Q 2244 -78 1831 -78 
Q 1128 -78 684 439 
Q 241 956 241 2144 
Q 241 3472 731 4075 
Q 1159 4600 1884 4600 
Q 2425 4600 2770 4297 
Q 3116 3994 3184 3459 
z
M 888 1484 
Q 888 1194 1011 928 
Q 1134 663 1356 523 
Q 1578 384 1822 384 
Q 2178 384 2434 671 
Q 2691 959 2691 1453 
Q 2691 1928 2437 2201 
Q 2184 2475 1800 2475 
Q 1419 2475 1153 2201 
Q 888 1928 888 1484 
z
" id="ArialMT-36" transform="scale(0.015625)"/>
       </defs>
       <use xlink:href="#ArialMT-30"/>
       <use x="55.615234" xlink:href="#ArialMT-2e"/>
       <use x="83.398438" xlink:href="#ArialMT-30"/>
       <use x="139.013672" xlink:href="#ArialMT-30"/>
       <use x="194.628906" xlink:href="#ArialMT-36"/>
      </g>
     </g>
    </g>
    <g id="ytick_4">
     <g id="line2d_8">
      <path clip-path="url(#pe191e6dd09)" d="M 56.99 143.469059 
L 387.843103 143.469059 
" style="fill:none;stroke:#cccccc;stroke-linecap:round;stroke-width:0.8;"/>
     </g>
     <g id="text_4">
      <!-- 0.008 -->
      <g style="fill:#262626;" transform="translate(24.968125 147.047966)scale(0.1 -0.1)">
       <defs>
        <path d="M 1131 2484 
Q 781 2613 612 2850 
Q 444 3088 444 3419 
Q 444 3919 803 4259 
Q 1163 4600 1759 4600 
Q 2359 4600 2725 4251 
Q 3091 3903 3091 3403 
Q 3091 3084 2923 2848 
Q 2756 2613 2416 2484 
Q 2838 2347 3058 2040 
Q 3278 1734 3278 1309 
Q 3278 722 2862 322 
Q 2447 -78 1769 -78 
Q 1091 -78 675 323 
Q 259 725 259 1325 
Q 259 1772 486 2073 
Q 713 2375 1131 2484 
z
M 1019 3438 
Q 1019 3113 1228 2906 
Q 1438 2700 1772 2700 
Q 2097 2700 2305 2904 
Q 2513 3109 2513 3406 
Q 2513 3716 2298 3927 
Q 2084 4138 1766 4138 
Q 1444 4138 1231 3931 
Q 1019 3725 1019 3438 
z
M 838 1322 
Q 838 1081 952 856 
Q 1066 631 1291 507 
Q 1516 384 1775 384 
Q 2178 384 2440 643 
Q 2703 903 2703 1303 
Q 2703 1709 2433 1975 
Q 2163 2241 1756 2241 
Q 1359 2241 1098 1978 
Q 838 1716 838 1322 
z
" id="ArialMT-38" transform="scale(0.015625)"/>
       </defs>
       <use xlink:href="#ArialMT-30"/>
       <use x="55.615234" xlink:href="#ArialMT-2e"/>
       <use x="83.398438" xlink:href="#ArialMT-30"/>
       <use x="139.013672" xlink:href="#ArialMT-30"/>
       <use x="194.628906" xlink:href="#ArialMT-38"/>
      </g>
     </g>
    </g>
    <g id="ytick_5">
     <g id="line2d_9">
      <path clip-path="url(#pe191e6dd09)" d="M 56.99 97.121876 
L 387.843103 97.121876 
" style="fill:none;stroke:#cccccc;stroke-linecap:round;stroke-width:0.8;"/>
     </g>
     <g id="text_5">
      <!-- 0.010 -->
      <g style="fill:#262626;" transform="translate(24.968125 100.700782)scale(0.1 -0.1)">
       <defs>
        <path d="M 2384 0 
L 1822 0 
L 1822 3584 
Q 1619 3391 1289 3197 
Q 959 3003 697 2906 
L 697 3450 
Q 1169 3672 1522 3987 
Q 1875 4303 2022 4600 
L 2384 4600 
L 2384 0 
z
" id="ArialMT-31" transform="scale(0.015625)"/>
       </defs>
       <use xlink:href="#ArialMT-30"/>
       <use x="55.615234" xlink:href="#ArialMT-2e"/>
       <use x="83.398438" xlink:href="#ArialMT-30"/>
       <use x="139.013672" xlink:href="#ArialMT-31"/>
       <use x="194.628906" xlink:href="#ArialMT-30"/>
      </g>
     </g>
    </g>
    <g id="ytick_6">
     <g id="line2d_10">
      <path clip-path="url(#pe191e6dd09)" d="M 56.99 50.774693 
L 387.843103 50.774693 
" style="fill:none;stroke:#cccccc;stroke-linecap:round;stroke-width:0.8;"/>
     </g>
     <g id="text_6">
      <!-- 0.012 -->
      <g style="fill:#262626;" transform="translate(24.968125 54.353599)scale(0.1 -0.1)">
       <use xlink:href="#ArialMT-30"/>
       <use x="55.615234" xlink:href="#ArialMT-2e"/>
       <use x="83.398438" xlink:href="#ArialMT-30"/>
       <use x="139.013672" xlink:href="#ArialMT-31"/>
       <use x="194.628906" xlink:href="#ArialMT-32"/>
      </g>
     </g>
    </g>
    <g id="text_7">
     <!-- time (s)/batch -->
     <g style="fill:#262626;" transform="translate(18.863437 205.186906)rotate(-90)scale(0.1 -0.1)">
      <defs>
       <path d="M 1650 503 
L 1731 6 
Q 1494 -44 1306 -44 
Q 1000 -44 831 53 
Q 663 150 594 308 
Q 525 466 525 972 
L 525 2881 
L 113 2881 
L 113 3319 
L 525 3319 
L 525 4141 
L 1084 4478 
L 1084 3319 
L 1650 3319 
L 1650 2881 
L 1084 2881 
L 1084 941 
Q 1084 700 1114 631 
Q 1144 563 1211 522 
Q 1278 481 1403 481 
Q 1497 481 1650 503 
z
" id="ArialMT-74" transform="scale(0.015625)"/>
       <path d="M 425 3934 
L 425 4581 
L 988 4581 
L 988 3934 
L 425 3934 
z
M 425 0 
L 425 3319 
L 988 3319 
L 988 0 
L 425 0 
z
" id="ArialMT-69" transform="scale(0.015625)"/>
       <path d="M 422 0 
L 422 3319 
L 925 3319 
L 925 2853 
Q 1081 3097 1340 3245 
Q 1600 3394 1931 3394 
Q 2300 3394 2536 3241 
Q 2772 3088 2869 2813 
Q 3263 3394 3894 3394 
Q 4388 3394 4653 3120 
Q 4919 2847 4919 2278 
L 4919 0 
L 4359 0 
L 4359 2091 
Q 4359 2428 4304 2576 
Q 4250 2725 4106 2815 
Q 3963 2906 3769 2906 
Q 3419 2906 3187 2673 
Q 2956 2441 2956 1928 
L 2956 0 
L 2394 0 
L 2394 2156 
Q 2394 2531 2256 2718 
Q 2119 2906 1806 2906 
Q 1569 2906 1367 2781 
Q 1166 2656 1075 2415 
Q 984 2175 984 1722 
L 984 0 
L 422 0 
z
" id="ArialMT-6d" transform="scale(0.015625)"/>
       <path d="M 2694 1069 
L 3275 997 
Q 3138 488 2766 206 
Q 2394 -75 1816 -75 
Q 1088 -75 661 373 
Q 234 822 234 1631 
Q 234 2469 665 2931 
Q 1097 3394 1784 3394 
Q 2450 3394 2872 2941 
Q 3294 2488 3294 1666 
Q 3294 1616 3291 1516 
L 816 1516 
Q 847 969 1125 678 
Q 1403 388 1819 388 
Q 2128 388 2347 550 
Q 2566 713 2694 1069 
z
M 847 1978 
L 2700 1978 
Q 2663 2397 2488 2606 
Q 2219 2931 1791 2931 
Q 1403 2931 1139 2672 
Q 875 2413 847 1978 
z
" id="ArialMT-65" transform="scale(0.015625)"/>
       <path id="ArialMT-20" transform="scale(0.015625)"/>
       <path d="M 1497 -1347 
Q 1031 -759 709 28 
Q 388 816 388 1659 
Q 388 2403 628 3084 
Q 909 3875 1497 4659 
L 1900 4659 
Q 1522 4009 1400 3731 
Q 1209 3300 1100 2831 
Q 966 2247 966 1656 
Q 966 153 1900 -1347 
L 1497 -1347 
z
" id="ArialMT-28" transform="scale(0.015625)"/>
       <path d="M 197 991 
L 753 1078 
Q 800 744 1014 566 
Q 1228 388 1613 388 
Q 2000 388 2187 545 
Q 2375 703 2375 916 
Q 2375 1106 2209 1216 
Q 2094 1291 1634 1406 
Q 1016 1563 777 1677 
Q 538 1791 414 1992 
Q 291 2194 291 2438 
Q 291 2659 392 2848 
Q 494 3038 669 3163 
Q 800 3259 1026 3326 
Q 1253 3394 1513 3394 
Q 1903 3394 2198 3281 
Q 2494 3169 2634 2976 
Q 2775 2784 2828 2463 
L 2278 2388 
Q 2241 2644 2061 2787 
Q 1881 2931 1553 2931 
Q 1166 2931 1000 2803 
Q 834 2675 834 2503 
Q 834 2394 903 2306 
Q 972 2216 1119 2156 
Q 1203 2125 1616 2013 
Q 2213 1853 2448 1751 
Q 2684 1650 2818 1456 
Q 2953 1263 2953 975 
Q 2953 694 2789 445 
Q 2625 197 2315 61 
Q 2006 -75 1616 -75 
Q 969 -75 630 194 
Q 291 463 197 991 
z
" id="ArialMT-73" transform="scale(0.015625)"/>
       <path d="M 791 -1347 
L 388 -1347 
Q 1322 153 1322 1656 
Q 1322 2244 1188 2822 
Q 1081 3291 891 3722 
Q 769 4003 388 4659 
L 791 4659 
Q 1378 3875 1659 3084 
Q 1900 2403 1900 1659 
Q 1900 816 1576 28 
Q 1253 -759 791 -1347 
z
" id="ArialMT-29" transform="scale(0.015625)"/>
       <path d="M 0 -78 
L 1328 4659 
L 1778 4659 
L 453 -78 
L 0 -78 
z
" id="ArialMT-2f" transform="scale(0.015625)"/>
       <path d="M 941 0 
L 419 0 
L 419 4581 
L 981 4581 
L 981 2947 
Q 1338 3394 1891 3394 
Q 2197 3394 2470 3270 
Q 2744 3147 2920 2923 
Q 3097 2700 3197 2384 
Q 3297 2069 3297 1709 
Q 3297 856 2875 390 
Q 2453 -75 1863 -75 
Q 1275 -75 941 416 
L 941 0 
z
M 934 1684 
Q 934 1088 1097 822 
Q 1363 388 1816 388 
Q 2184 388 2453 708 
Q 2722 1028 2722 1663 
Q 2722 2313 2464 2622 
Q 2206 2931 1841 2931 
Q 1472 2931 1203 2611 
Q 934 2291 934 1684 
z
" id="ArialMT-62" transform="scale(0.015625)"/>
       <path d="M 2588 409 
Q 2275 144 1986 34 
Q 1697 -75 1366 -75 
Q 819 -75 525 192 
Q 231 459 231 875 
Q 231 1119 342 1320 
Q 453 1522 633 1644 
Q 813 1766 1038 1828 
Q 1203 1872 1538 1913 
Q 2219 1994 2541 2106 
Q 2544 2222 2544 2253 
Q 2544 2597 2384 2738 
Q 2169 2928 1744 2928 
Q 1347 2928 1158 2789 
Q 969 2650 878 2297 
L 328 2372 
Q 403 2725 575 2942 
Q 747 3159 1072 3276 
Q 1397 3394 1825 3394 
Q 2250 3394 2515 3294 
Q 2781 3194 2906 3042 
Q 3031 2891 3081 2659 
Q 3109 2516 3109 2141 
L 3109 1391 
Q 3109 606 3145 398 
Q 3181 191 3288 0 
L 2700 0 
Q 2613 175 2588 409 
z
M 2541 1666 
Q 2234 1541 1622 1453 
Q 1275 1403 1131 1340 
Q 988 1278 909 1158 
Q 831 1038 831 891 
Q 831 666 1001 516 
Q 1172 366 1500 366 
Q 1825 366 2078 508 
Q 2331 650 2450 897 
Q 2541 1088 2541 1459 
L 2541 1666 
z
" id="ArialMT-61" transform="scale(0.015625)"/>
       <path d="M 2588 1216 
L 3141 1144 
Q 3050 572 2676 248 
Q 2303 -75 1759 -75 
Q 1078 -75 664 370 
Q 250 816 250 1647 
Q 250 2184 428 2587 
Q 606 2991 970 3192 
Q 1334 3394 1763 3394 
Q 2303 3394 2647 3120 
Q 2991 2847 3088 2344 
L 2541 2259 
Q 2463 2594 2264 2762 
Q 2066 2931 1784 2931 
Q 1359 2931 1093 2626 
Q 828 2322 828 1663 
Q 828 994 1084 691 
Q 1341 388 1753 388 
Q 2084 388 2306 591 
Q 2528 794 2588 1216 
z
" id="ArialMT-63" transform="scale(0.015625)"/>
       <path d="M 422 0 
L 422 4581 
L 984 4581 
L 984 2938 
Q 1378 3394 1978 3394 
Q 2347 3394 2619 3248 
Q 2891 3103 3008 2847 
Q 3125 2591 3125 2103 
L 3125 0 
L 2563 0 
L 2563 2103 
Q 2563 2525 2380 2717 
Q 2197 2909 1863 2909 
Q 1613 2909 1392 2779 
Q 1172 2650 1078 2428 
Q 984 2206 984 1816 
L 984 0 
L 422 0 
z
" id="ArialMT-68" transform="scale(0.015625)"/>
      </defs>
      <use xlink:href="#ArialMT-74"/>
      <use x="27.783203" xlink:href="#ArialMT-69"/>
      <use x="50" xlink:href="#ArialMT-6d"/>
      <use x="133.300781" xlink:href="#ArialMT-65"/>
      <use x="188.916016" xlink:href="#ArialMT-20"/>
      <use x="216.699219" xlink:href="#ArialMT-28"/>
      <use x="250" xlink:href="#ArialMT-73"/>
      <use x="300" xlink:href="#ArialMT-29"/>
      <use x="333.300781" xlink:href="#ArialMT-2f"/>
      <use x="361.083984" xlink:href="#ArialMT-62"/>
      <use x="416.699219" xlink:href="#ArialMT-61"/>
      <use x="472.314453" xlink:href="#ArialMT-74"/>
      <use x="500.097656" xlink:href="#ArialMT-63"/>
      <use x="550.097656" xlink:href="#ArialMT-68"/>
     </g>
    </g>
   </g>
   <g id="PolyCollection_1">
    <defs>
     <path d="M 72.028777 -583.470852 
L 72.028777 -582.051599 
L 97.093406 -563.616471 
L 122.158036 -549.010984 
L 147.222665 -485.138338 
L 172.287294 -461.362946 
L 197.351923 -542.689605 
L 222.416552 -539.625307 
L 247.481181 -537.00107 
L 272.54581 -474.79329 
L 272.54581 -485.508276 
L 272.54581 -485.508276 
L 247.481181 -537.580784 
L 222.416552 -540.44715 
L 197.351923 -544.086485 
L 172.287294 -469.626933 
L 147.222665 -494.085022 
L 122.158036 -549.773534 
L 97.093406 -564.507583 
L 72.028777 -583.470852 
z
" id="me07771af2e" style="stroke:#1f77b4;stroke-opacity:0.2;"/>
    </defs>
    <g clip-path="url(#pe191e6dd09)">
     <use style="fill:#1f77b4;fill-opacity:0.2;stroke:#1f77b4;stroke-opacity:0.2;" x="0" xlink:href="#me07771af2e" y="720"/>
    </g>
   </g>
   <g id="PolyCollection_2">
    <defs>
     <path d="M 72.028777 -425.311341 
L 72.028777 -424.5566 
L 97.093406 -424.326028 
L 122.158036 -428.416606 
L 147.222665 -426.830077 
L 172.287294 -426.473718 
L 197.351923 -426.754477 
L 222.416552 -425.075687 
L 247.481181 -426.173926 
L 272.54581 -431.660671 
L 272.54581 -432.868708 
L 272.54581 -432.868708 
L 247.481181 -426.333067 
L 222.416552 -425.397461 
L 197.351923 -427.078298 
L 172.287294 -426.631826 
L 147.222665 -426.993132 
L 122.158036 -430.31955 
L 97.093406 -424.72692 
L 72.028777 -425.311341 
z
" id="m5a323f340e" style="stroke:#ff7f0e;stroke-opacity:0.2;"/>
    </defs>
    <g clip-path="url(#pe191e6dd09)">
     <use style="fill:#ff7f0e;fill-opacity:0.2;stroke:#ff7f0e;stroke-opacity:0.2;" x="0" xlink:href="#m5a323f340e" y="720"/>
    </g>
   </g>
   <g id="PolyCollection_3">
    <defs>
     <path d="M 72.028777 -422.666345 
L 72.028777 -421.261446 
L 97.093406 -436.380108 
L 122.158036 -438.47333 
L 147.222665 -444.462435 
L 172.287294 -445.769242 
L 197.351923 -454.994885 
L 222.416552 -434.791243 
L 247.481181 -447.797343 
L 272.54581 -483.358417 
L 272.54581 -489.433615 
L 272.54581 -489.433615 
L 247.481181 -451.673986 
L 222.416552 -437.974553 
L 197.351923 -459.25948 
L 172.287294 -446.906311 
L 147.222665 -447.211097 
L 122.158036 -439.716502 
L 97.093406 -436.498285 
L 72.028777 -422.666345 
z
" id="mb28701b83f" style="stroke:#2ca02c;stroke-opacity:0.2;"/>
    </defs>
    <g clip-path="url(#pe191e6dd09)">
     <use style="fill:#2ca02c;fill-opacity:0.2;stroke:#2ca02c;stroke-opacity:0.2;" x="0" xlink:href="#mb28701b83f" y="720"/>
    </g>
   </g>
   <g id="line2d_11">
    <path clip-path="url(#pe191e6dd09)" d="M 72.028777 137.239119 
L 97.093406 155.927837 
L 122.158036 170.614737 
L 147.222665 230.231007 
L 172.287294 254.546748 
L 197.351923 176.608222 
L 222.416552 179.987462 
L 247.481181 182.731997 
L 272.54581 239.905369 
" style="fill:none;stroke:#1f77b4;stroke-linecap:round;stroke-width:1.5;"/>
   </g>
   <g id="line2d_12">
    <path clip-path="url(#pe191e6dd09)" d="M 72.028777 295.088538 
L 97.093406 295.476207 
L 122.158036 290.711022 
L 147.222665 293.090916 
L 172.287294 293.447154 
L 197.351923 293.091567 
L 222.416552 294.764407 
L 247.481181 293.751054 
L 272.54581 287.81872 
" style="fill:none;stroke:#ff7f0e;stroke-linecap:round;stroke-width:1.5;"/>
   </g>
   <g id="line2d_13">
    <path clip-path="url(#pe191e6dd09)" d="M 72.028777 298.026013 
L 97.093406 283.559561 
L 122.158036 280.974427 
L 147.222665 274.304418 
L 172.287294 273.660811 
L 197.351923 263.123008 
L 222.416552 283.635398 
L 247.481181 270.471797 
L 272.54581 233.935116 
" style="fill:none;stroke:#2ca02c;stroke-linecap:round;stroke-width:1.5;"/>
   </g>
   <g id="line2d_14"/>
   <g id="line2d_15"/>
   <g id="line2d_16"/>
   <g id="patch_3">
    <path d="M 56.99 325.086625 
L 56.99 24.72 
" style="fill:none;stroke:#cccccc;stroke-linecap:square;stroke-linejoin:miter;stroke-width:0.8;"/>
   </g>
   <g id="patch_4">
    <path d="M 56.99 325.086625 
L 387.843103 325.086625 
" style="fill:none;stroke:#cccccc;stroke-linecap:square;stroke-linejoin:miter;stroke-width:0.8;"/>
   </g>
   <g id="text_8">
    <!-- dataset = countries -->
    <g style="fill:#262626;" transform="translate(180.031395 18.72)scale(0.1 -0.1)">
     <defs>
      <path d="M 2575 0 
L 2575 419 
Q 2259 -75 1647 -75 
Q 1250 -75 917 144 
Q 584 363 401 755 
Q 219 1147 219 1656 
Q 219 2153 384 2558 
Q 550 2963 881 3178 
Q 1213 3394 1622 3394 
Q 1922 3394 2156 3267 
Q 2391 3141 2538 2938 
L 2538 4581 
L 3097 4581 
L 3097 0 
L 2575 0 
z
M 797 1656 
Q 797 1019 1065 703 
Q 1334 388 1700 388 
Q 2069 388 2326 689 
Q 2584 991 2584 1609 
Q 2584 2291 2321 2609 
Q 2059 2928 1675 2928 
Q 1300 2928 1048 2622 
Q 797 2316 797 1656 
z
" id="ArialMT-64" transform="scale(0.015625)"/>
      <path d="M 3381 2694 
L 356 2694 
L 356 3219 
L 3381 3219 
L 3381 2694 
z
M 3381 1303 
L 356 1303 
L 356 1828 
L 3381 1828 
L 3381 1303 
z
" id="ArialMT-3d" transform="scale(0.015625)"/>
      <path d="M 213 1659 
Q 213 2581 725 3025 
Q 1153 3394 1769 3394 
Q 2453 3394 2887 2945 
Q 3322 2497 3322 1706 
Q 3322 1066 3130 698 
Q 2938 331 2570 128 
Q 2203 -75 1769 -75 
Q 1072 -75 642 372 
Q 213 819 213 1659 
z
M 791 1659 
Q 791 1022 1069 705 
Q 1347 388 1769 388 
Q 2188 388 2466 706 
Q 2744 1025 2744 1678 
Q 2744 2294 2464 2611 
Q 2184 2928 1769 2928 
Q 1347 2928 1069 2612 
Q 791 2297 791 1659 
z
" id="ArialMT-6f" transform="scale(0.015625)"/>
      <path d="M 2597 0 
L 2597 488 
Q 2209 -75 1544 -75 
Q 1250 -75 995 37 
Q 741 150 617 320 
Q 494 491 444 738 
Q 409 903 409 1263 
L 409 3319 
L 972 3319 
L 972 1478 
Q 972 1038 1006 884 
Q 1059 663 1231 536 
Q 1403 409 1656 409 
Q 1909 409 2131 539 
Q 2353 669 2445 892 
Q 2538 1116 2538 1541 
L 2538 3319 
L 3100 3319 
L 3100 0 
L 2597 0 
z
" id="ArialMT-75" transform="scale(0.015625)"/>
      <path d="M 422 0 
L 422 3319 
L 928 3319 
L 928 2847 
Q 1294 3394 1984 3394 
Q 2284 3394 2536 3286 
Q 2788 3178 2913 3003 
Q 3038 2828 3088 2588 
Q 3119 2431 3119 2041 
L 3119 0 
L 2556 0 
L 2556 2019 
Q 2556 2363 2490 2533 
Q 2425 2703 2258 2804 
Q 2091 2906 1866 2906 
Q 1506 2906 1245 2678 
Q 984 2450 984 1813 
L 984 0 
L 422 0 
z
" id="ArialMT-6e" transform="scale(0.015625)"/>
      <path d="M 416 0 
L 416 3319 
L 922 3319 
L 922 2816 
Q 1116 3169 1280 3281 
Q 1444 3394 1641 3394 
Q 1925 3394 2219 3213 
L 2025 2691 
Q 1819 2813 1613 2813 
Q 1428 2813 1281 2702 
Q 1134 2591 1072 2394 
Q 978 2094 978 1738 
L 978 0 
L 416 0 
z
" id="ArialMT-72" transform="scale(0.015625)"/>
     </defs>
     <use xlink:href="#ArialMT-64"/>
     <use x="55.615234" xlink:href="#ArialMT-61"/>
     <use x="111.230469" xlink:href="#ArialMT-74"/>
     <use x="139.013672" xlink:href="#ArialMT-61"/>
     <use x="194.628906" xlink:href="#ArialMT-73"/>
     <use x="244.628906" xlink:href="#ArialMT-65"/>
     <use x="300.244141" xlink:href="#ArialMT-74"/>
     <use x="328.027344" xlink:href="#ArialMT-20"/>
     <use x="355.810547" xlink:href="#ArialMT-3d"/>
     <use x="414.208984" xlink:href="#ArialMT-20"/>
     <use x="441.992188" xlink:href="#ArialMT-63"/>
     <use x="491.992188" xlink:href="#ArialMT-6f"/>
     <use x="547.607422" xlink:href="#ArialMT-75"/>
     <use x="603.222656" xlink:href="#ArialMT-6e"/>
     <use x="658.837891" xlink:href="#ArialMT-74"/>
     <use x="686.621094" xlink:href="#ArialMT-72"/>
     <use x="719.921875" xlink:href="#ArialMT-69"/>
     <use x="742.138672" xlink:href="#ArialMT-65"/>
     <use x="797.753906" xlink:href="#ArialMT-73"/>
    </g>
   </g>
  </g>
  <g id="axes_2">
   <g id="patch_5">
    <path d="M 398.825773 325.086625 
L 729.678877 325.086625 
L 729.678877 24.72 
L 398.825773 24.72 
z
" style="fill:#ffffff;"/>
   </g>
   <g id="matplotlib.axis_3">
    <g id="xtick_37">
     <g id="line2d_17">
      <path clip-path="url(#pbd940fa421)" d="M 472.062817 325.086625 
L 472.062817 24.72 
" style="fill:none;stroke:#cccccc;stroke-linecap:round;stroke-width:0.8;"/>
     </g>
     <g id="text_9">
      <!-- $\mathdefault{10^{1}}$ -->
      <g style="fill:#262626;" transform="translate(464.212817 342.399125)scale(0.1 -0.1)">
       <use transform="translate(0 0.99375)" xlink:href="#ArialMT-31"/>
       <use transform="translate(55.615234 0.99375)" xlink:href="#ArialMT-30"/>
       <use transform="translate(112.972813 70.6875)scale(0.7)" xlink:href="#ArialMT-31"/>
      </g>
     </g>
    </g>
    <g id="xtick_38">
     <g id="line2d_18">
      <path clip-path="url(#pbd940fa421)" d="M 555.325712 325.086625 
L 555.325712 24.72 
" style="fill:none;stroke:#cccccc;stroke-linecap:round;stroke-width:0.8;"/>
     </g>
     <g id="text_10">
      <!-- $\mathdefault{10^{2}}$ -->
      <g style="fill:#262626;" transform="translate(547.475712 342.399125)scale(0.1 -0.1)">
       <use transform="translate(0 0.99375)" xlink:href="#ArialMT-31"/>
       <use transform="translate(55.615234 0.99375)" xlink:href="#ArialMT-30"/>
       <use transform="translate(112.972813 70.6875)scale(0.7)" xlink:href="#ArialMT-32"/>
      </g>
     </g>
    </g>
    <g id="xtick_39">
     <g id="line2d_19">
      <path clip-path="url(#pbd940fa421)" d="M 638.588608 325.086625 
L 638.588608 24.72 
" style="fill:none;stroke:#cccccc;stroke-linecap:round;stroke-width:0.8;"/>
     </g>
     <g id="text_11">
      <!-- $\mathdefault{10^{3}}$ -->
      <g style="fill:#262626;" transform="translate(630.738608 342.399125)scale(0.1 -0.1)">
       <defs>
        <path d="M 269 1209 
L 831 1284 
Q 928 806 1161 595 
Q 1394 384 1728 384 
Q 2125 384 2398 659 
Q 2672 934 2672 1341 
Q 2672 1728 2419 1979 
Q 2166 2231 1775 2231 
Q 1616 2231 1378 2169 
L 1441 2663 
Q 1497 2656 1531 2656 
Q 1891 2656 2178 2843 
Q 2466 3031 2466 3422 
Q 2466 3731 2256 3934 
Q 2047 4138 1716 4138 
Q 1388 4138 1169 3931 
Q 950 3725 888 3313 
L 325 3413 
Q 428 3978 793 4289 
Q 1159 4600 1703 4600 
Q 2078 4600 2393 4439 
Q 2709 4278 2876 4000 
Q 3044 3722 3044 3409 
Q 3044 3113 2884 2869 
Q 2725 2625 2413 2481 
Q 2819 2388 3044 2092 
Q 3269 1797 3269 1353 
Q 3269 753 2831 336 
Q 2394 -81 1725 -81 
Q 1122 -81 723 278 
Q 325 638 269 1209 
z
" id="ArialMT-33" transform="scale(0.015625)"/>
       </defs>
       <use transform="translate(0 0.99375)" xlink:href="#ArialMT-31"/>
       <use transform="translate(55.615234 0.99375)" xlink:href="#ArialMT-30"/>
       <use transform="translate(112.972813 70.6875)scale(0.7)" xlink:href="#ArialMT-33"/>
      </g>
     </g>
    </g>
    <g id="xtick_40">
     <g id="line2d_20">
      <path clip-path="url(#pbd940fa421)" d="M 721.851503 325.086625 
L 721.851503 24.72 
" style="fill:none;stroke:#cccccc;stroke-linecap:round;stroke-width:0.8;"/>
     </g>
     <g id="text_12">
      <!-- $\mathdefault{10^{4}}$ -->
      <g style="fill:#262626;" transform="translate(714.001503 342.299125)scale(0.1 -0.1)">
       <use transform="translate(0 0.201563)" xlink:href="#ArialMT-31"/>
       <use transform="translate(55.615234 0.201563)" xlink:href="#ArialMT-30"/>
       <use transform="translate(112.972813 69.895313)scale(0.7)" xlink:href="#ArialMT-34"/>
      </g>
     </g>
    </g>
    <g id="xtick_41"/>
    <g id="xtick_42"/>
    <g id="xtick_43"/>
    <g id="xtick_44"/>
    <g id="xtick_45"/>
    <g id="xtick_46"/>
    <g id="xtick_47"/>
    <g id="xtick_48"/>
    <g id="xtick_49"/>
    <g id="xtick_50"/>
    <g id="xtick_51"/>
    <g id="xtick_52"/>
    <g id="xtick_53"/>
    <g id="xtick_54"/>
    <g id="xtick_55"/>
    <g id="xtick_56"/>
    <g id="xtick_57"/>
    <g id="xtick_58"/>
    <g id="xtick_59"/>
    <g id="xtick_60"/>
    <g id="xtick_61"/>
    <g id="xtick_62"/>
    <g id="xtick_63"/>
    <g id="xtick_64"/>
    <g id="xtick_65"/>
    <g id="xtick_66"/>
    <g id="xtick_67"/>
    <g id="xtick_68"/>
    <g id="xtick_69"/>
    <g id="xtick_70"/>
    <g id="xtick_71"/>
    <g id="xtick_72"/>
    <g id="text_13">
     <!-- batch size -->
     <g style="fill:#262626;" transform="translate(541.741387 355.544438)scale(0.1 -0.1)">
      <defs>
       <path d="M 125 0 
L 125 456 
L 2238 2881 
Q 1878 2863 1603 2863 
L 250 2863 
L 250 3319 
L 2963 3319 
L 2963 2947 
L 1166 841 
L 819 456 
Q 1197 484 1528 484 
L 3063 484 
L 3063 0 
L 125 0 
z
" id="ArialMT-7a" transform="scale(0.015625)"/>
      </defs>
      <use xlink:href="#ArialMT-62"/>
      <use x="55.615234" xlink:href="#ArialMT-61"/>
      <use x="111.230469" xlink:href="#ArialMT-74"/>
      <use x="139.013672" xlink:href="#ArialMT-63"/>
      <use x="189.013672" xlink:href="#ArialMT-68"/>
      <use x="244.628906" xlink:href="#ArialMT-20"/>
      <use x="272.412109" xlink:href="#ArialMT-73"/>
      <use x="322.412109" xlink:href="#ArialMT-69"/>
      <use x="344.628906" xlink:href="#ArialMT-7a"/>
      <use x="394.628906" xlink:href="#ArialMT-65"/>
     </g>
    </g>
   </g>
   <g id="matplotlib.axis_4">
    <g id="ytick_7">
     <g id="line2d_21">
      <path clip-path="url(#pbd940fa421)" d="M 398.825773 282.510609 
L 729.678877 282.510609 
" style="fill:none;stroke:#cccccc;stroke-linecap:round;stroke-width:0.8;"/>
     </g>
    </g>
    <g id="ytick_8">
     <g id="line2d_22">
      <path clip-path="url(#pbd940fa421)" d="M 398.825773 236.163426 
L 729.678877 236.163426 
" style="fill:none;stroke:#cccccc;stroke-linecap:round;stroke-width:0.8;"/>
     </g>
    </g>
    <g id="ytick_9">
     <g id="line2d_23">
      <path clip-path="url(#pbd940fa421)" d="M 398.825773 189.816242 
L 729.678877 189.816242 
" style="fill:none;stroke:#cccccc;stroke-linecap:round;stroke-width:0.8;"/>
     </g>
    </g>
    <g id="ytick_10">
     <g id="line2d_24">
      <path clip-path="url(#pbd940fa421)" d="M 398.825773 143.469059 
L 729.678877 143.469059 
" style="fill:none;stroke:#cccccc;stroke-linecap:round;stroke-width:0.8;"/>
     </g>
    </g>
    <g id="ytick_11">
     <g id="line2d_25">
      <path clip-path="url(#pbd940fa421)" d="M 398.825773 97.121876 
L 729.678877 97.121876 
" style="fill:none;stroke:#cccccc;stroke-linecap:round;stroke-width:0.8;"/>
     </g>
    </g>
    <g id="ytick_12">
     <g id="line2d_26">
      <path clip-path="url(#pbd940fa421)" d="M 398.825773 50.774693 
L 729.678877 50.774693 
" style="fill:none;stroke:#cccccc;stroke-linecap:round;stroke-width:0.8;"/>
     </g>
    </g>
   </g>
   <g id="PolyCollection_4">
    <defs>
     <path d="M 413.864551 -483.712277 
L 413.864551 -477.185239 
L 438.92918 -473.961983 
L 463.993809 -494.330836 
L 489.058438 -462.74648 
L 514.123067 -475.743291 
L 539.187696 -490.681205 
L 564.252325 -505.657646 
L 589.316954 -483.994708 
L 614.381583 -542.690753 
L 614.381583 -548.295318 
L 614.381583 -548.295318 
L 589.316954 -491.388362 
L 564.252325 -517.484042 
L 539.187696 -500.057766 
L 514.123067 -483.267558 
L 489.058438 -471.967747 
L 463.993809 -504.355846 
L 438.92918 -480.69215 
L 413.864551 -483.712277 
z
" id="m48e9e94d25" style="stroke:#1f77b4;stroke-opacity:0.2;"/>
    </defs>
    <g clip-path="url(#pbd940fa421)">
     <use style="fill:#1f77b4;fill-opacity:0.2;stroke:#1f77b4;stroke-opacity:0.2;" x="0" xlink:href="#m48e9e94d25" y="720"/>
    </g>
   </g>
   <g id="PolyCollection_5">
    <defs>
     <path d="M 413.864551 -414.471041 
L 413.864551 -414.322373 
L 438.92918 -414.682429 
L 463.993809 -416.139819 
L 489.058438 -418.124377 
L 514.123067 -417.027903 
L 539.187696 -415.699456 
L 564.252325 -418.304454 
L 589.316954 -420.096979 
L 614.381583 -420.950176 
L 614.381583 -421.259176 
L 614.381583 -421.259176 
L 589.316954 -420.518213 
L 564.252325 -418.789758 
L 539.187696 -415.941582 
L 514.123067 -417.484838 
L 489.058438 -418.542734 
L 463.993809 -416.450803 
L 438.92918 -414.869664 
L 413.864551 -414.471041 
z
" id="me7c09a9556" style="stroke:#ff7f0e;stroke-opacity:0.2;"/>
    </defs>
    <g clip-path="url(#pbd940fa421)">
     <use style="fill:#ff7f0e;fill-opacity:0.2;stroke:#ff7f0e;stroke-opacity:0.2;" x="0" xlink:href="#me7c09a9556" y="720"/>
    </g>
   </g>
   <g id="PolyCollection_6">
    <defs>
     <path d="M 413.864551 -424.694808 
L 413.864551 -424.361174 
L 438.92918 -424.405316 
L 463.993809 -434.01539 
L 489.058438 -430.169731 
L 514.123067 -427.226764 
L 539.187696 -425.105059 
L 564.252325 -426.516592 
L 589.316954 -442.735272 
L 614.381583 -444.537369 
L 614.381583 -446.240036 
L 614.381583 -446.240036 
L 589.316954 -444.381203 
L 564.252325 -426.795829 
L 539.187696 -425.369598 
L 514.123067 -427.670961 
L 489.058438 -431.107426 
L 463.993809 -435.309675 
L 438.92918 -424.699684 
L 413.864551 -424.694808 
z
" id="ma4064e05bb" style="stroke:#2ca02c;stroke-opacity:0.2;"/>
    </defs>
    <g clip-path="url(#pbd940fa421)">
     <use style="fill:#2ca02c;fill-opacity:0.2;stroke:#2ca02c;stroke-opacity:0.2;" x="0" xlink:href="#ma4064e05bb" y="720"/>
    </g>
   </g>
   <g id="line2d_27">
    <path clip-path="url(#pbd940fa421)" d="M 413.864551 239.511674 
L 438.92918 242.608867 
L 463.993809 220.896821 
L 489.058438 252.828307 
L 514.123067 240.395073 
L 539.187696 224.867068 
L 564.252325 208.560877 
L 589.316954 232.173085 
L 614.381583 174.613331 
" style="fill:none;stroke:#1f77b4;stroke-linecap:round;stroke-width:1.5;"/>
   </g>
   <g id="line2d_28">
    <path clip-path="url(#pbd940fa421)" d="M 413.864551 305.605026 
L 438.92918 305.224861 
L 463.993809 303.719487 
L 489.058438 301.655432 
L 514.123067 302.756736 
L 539.187696 304.175506 
L 564.252325 301.453362 
L 589.316954 299.696869 
L 614.381583 298.904099 
" style="fill:none;stroke:#ff7f0e;stroke-linecap:round;stroke-width:1.5;"/>
   </g>
   <g id="line2d_29">
    <path clip-path="url(#pbd940fa421)" d="M 413.864551 295.469024 
L 438.92918 295.44956 
L 463.993809 285.337079 
L 489.058438 289.353672 
L 514.123067 292.556071 
L 539.187696 294.762899 
L 564.252325 293.343584 
L 589.316954 276.440259 
L 614.381583 274.653774 
" style="fill:none;stroke:#2ca02c;stroke-linecap:round;stroke-width:1.5;"/>
   </g>
   <g id="patch_6">
    <path d="M 398.825773 325.086625 
L 398.825773 24.72 
" style="fill:none;stroke:#cccccc;stroke-linecap:square;stroke-linejoin:miter;stroke-width:0.8;"/>
   </g>
   <g id="patch_7">
    <path d="M 398.825773 325.086625 
L 729.678877 325.086625 
" style="fill:none;stroke:#cccccc;stroke-linecap:square;stroke-linejoin:miter;stroke-width:0.8;"/>
   </g>
   <g id="text_14">
    <!-- dataset = nations -->
    <g style="fill:#262626;" transform="translate(526.032012 18.72)scale(0.1 -0.1)">
     <use xlink:href="#ArialMT-64"/>
     <use x="55.615234" xlink:href="#ArialMT-61"/>
     <use x="111.230469" xlink:href="#ArialMT-74"/>
     <use x="139.013672" xlink:href="#ArialMT-61"/>
     <use x="194.628906" xlink:href="#ArialMT-73"/>
     <use x="244.628906" xlink:href="#ArialMT-65"/>
     <use x="300.244141" xlink:href="#ArialMT-74"/>
     <use x="328.027344" xlink:href="#ArialMT-20"/>
     <use x="355.810547" xlink:href="#ArialMT-3d"/>
     <use x="414.208984" xlink:href="#ArialMT-20"/>
     <use x="441.992188" xlink:href="#ArialMT-6e"/>
     <use x="497.607422" xlink:href="#ArialMT-61"/>
     <use x="553.222656" xlink:href="#ArialMT-74"/>
     <use x="581.005859" xlink:href="#ArialMT-69"/>
     <use x="603.222656" xlink:href="#ArialMT-6f"/>
     <use x="658.837891" xlink:href="#ArialMT-6e"/>
     <use x="714.453125" xlink:href="#ArialMT-73"/>
    </g>
   </g>
  </g>
  <g id="axes_3">
   <g id="patch_8">
    <path d="M 740.661546 325.086625 
L 1071.51465 325.086625 
L 1071.51465 24.72 
L 740.661546 24.72 
z
" style="fill:#ffffff;"/>
   </g>
   <g id="matplotlib.axis_5">
    <g id="xtick_73">
     <g id="line2d_30">
      <path clip-path="url(#p9a164664ab)" d="M 813.89859 325.086625 
L 813.89859 24.72 
" style="fill:none;stroke:#cccccc;stroke-linecap:round;stroke-width:0.8;"/>
     </g>
     <g id="text_15">
      <!-- $\mathdefault{10^{1}}$ -->
      <g style="fill:#262626;" transform="translate(806.04859 342.399125)scale(0.1 -0.1)">
       <use transform="translate(0 0.99375)" xlink:href="#ArialMT-31"/>
       <use transform="translate(55.615234 0.99375)" xlink:href="#ArialMT-30"/>
       <use transform="translate(112.972813 70.6875)scale(0.7)" xlink:href="#ArialMT-31"/>
      </g>
     </g>
    </g>
    <g id="xtick_74">
     <g id="line2d_31">
      <path clip-path="url(#p9a164664ab)" d="M 897.161485 325.086625 
L 897.161485 24.72 
" style="fill:none;stroke:#cccccc;stroke-linecap:round;stroke-width:0.8;"/>
     </g>
     <g id="text_16">
      <!-- $\mathdefault{10^{2}}$ -->
      <g style="fill:#262626;" transform="translate(889.311485 342.399125)scale(0.1 -0.1)">
       <use transform="translate(0 0.99375)" xlink:href="#ArialMT-31"/>
       <use transform="translate(55.615234 0.99375)" xlink:href="#ArialMT-30"/>
       <use transform="translate(112.972813 70.6875)scale(0.7)" xlink:href="#ArialMT-32"/>
      </g>
     </g>
    </g>
    <g id="xtick_75">
     <g id="line2d_32">
      <path clip-path="url(#p9a164664ab)" d="M 980.424381 325.086625 
L 980.424381 24.72 
" style="fill:none;stroke:#cccccc;stroke-linecap:round;stroke-width:0.8;"/>
     </g>
     <g id="text_17">
      <!-- $\mathdefault{10^{3}}$ -->
      <g style="fill:#262626;" transform="translate(972.574381 342.399125)scale(0.1 -0.1)">
       <use transform="translate(0 0.99375)" xlink:href="#ArialMT-31"/>
       <use transform="translate(55.615234 0.99375)" xlink:href="#ArialMT-30"/>
       <use transform="translate(112.972813 70.6875)scale(0.7)" xlink:href="#ArialMT-33"/>
      </g>
     </g>
    </g>
    <g id="xtick_76">
     <g id="line2d_33">
      <path clip-path="url(#p9a164664ab)" d="M 1063.687276 325.086625 
L 1063.687276 24.72 
" style="fill:none;stroke:#cccccc;stroke-linecap:round;stroke-width:0.8;"/>
     </g>
     <g id="text_18">
      <!-- $\mathdefault{10^{4}}$ -->
      <g style="fill:#262626;" transform="translate(1055.837276 342.299125)scale(0.1 -0.1)">
       <use transform="translate(0 0.201563)" xlink:href="#ArialMT-31"/>
       <use transform="translate(55.615234 0.201563)" xlink:href="#ArialMT-30"/>
       <use transform="translate(112.972813 69.895313)scale(0.7)" xlink:href="#ArialMT-34"/>
      </g>
     </g>
    </g>
    <g id="xtick_77"/>
    <g id="xtick_78"/>
    <g id="xtick_79"/>
    <g id="xtick_80"/>
    <g id="xtick_81"/>
    <g id="xtick_82"/>
    <g id="xtick_83"/>
    <g id="xtick_84"/>
    <g id="xtick_85"/>
    <g id="xtick_86"/>
    <g id="xtick_87"/>
    <g id="xtick_88"/>
    <g id="xtick_89"/>
    <g id="xtick_90"/>
    <g id="xtick_91"/>
    <g id="xtick_92"/>
    <g id="xtick_93"/>
    <g id="xtick_94"/>
    <g id="xtick_95"/>
    <g id="xtick_96"/>
    <g id="xtick_97"/>
    <g id="xtick_98"/>
    <g id="xtick_99"/>
    <g id="xtick_100"/>
    <g id="xtick_101"/>
    <g id="xtick_102"/>
    <g id="xtick_103"/>
    <g id="xtick_104"/>
    <g id="xtick_105"/>
    <g id="xtick_106"/>
    <g id="xtick_107"/>
    <g id="xtick_108"/>
    <g id="text_19">
     <!-- batch size -->
     <g style="fill:#262626;" transform="translate(883.57716 355.544438)scale(0.1 -0.1)">
      <use xlink:href="#ArialMT-62"/>
      <use x="55.615234" xlink:href="#ArialMT-61"/>
      <use x="111.230469" xlink:href="#ArialMT-74"/>
      <use x="139.013672" xlink:href="#ArialMT-63"/>
      <use x="189.013672" xlink:href="#ArialMT-68"/>
      <use x="244.628906" xlink:href="#ArialMT-20"/>
      <use x="272.412109" xlink:href="#ArialMT-73"/>
      <use x="322.412109" xlink:href="#ArialMT-69"/>
      <use x="344.628906" xlink:href="#ArialMT-7a"/>
      <use x="394.628906" xlink:href="#ArialMT-65"/>
     </g>
    </g>
   </g>
   <g id="matplotlib.axis_6">
    <g id="ytick_13">
     <g id="line2d_34">
      <path clip-path="url(#p9a164664ab)" d="M 740.661546 282.510609 
L 1071.51465 282.510609 
" style="fill:none;stroke:#cccccc;stroke-linecap:round;stroke-width:0.8;"/>
     </g>
    </g>
    <g id="ytick_14">
     <g id="line2d_35">
      <path clip-path="url(#p9a164664ab)" d="M 740.661546 236.163426 
L 1071.51465 236.163426 
" style="fill:none;stroke:#cccccc;stroke-linecap:round;stroke-width:0.8;"/>
     </g>
    </g>
    <g id="ytick_15">
     <g id="line2d_36">
      <path clip-path="url(#p9a164664ab)" d="M 740.661546 189.816242 
L 1071.51465 189.816242 
" style="fill:none;stroke:#cccccc;stroke-linecap:round;stroke-width:0.8;"/>
     </g>
    </g>
    <g id="ytick_16">
     <g id="line2d_37">
      <path clip-path="url(#p9a164664ab)" d="M 740.661546 143.469059 
L 1071.51465 143.469059 
" style="fill:none;stroke:#cccccc;stroke-linecap:round;stroke-width:0.8;"/>
     </g>
    </g>
    <g id="ytick_17">
     <g id="line2d_38">
      <path clip-path="url(#p9a164664ab)" d="M 740.661546 97.121876 
L 1071.51465 97.121876 
" style="fill:none;stroke:#cccccc;stroke-linecap:round;stroke-width:0.8;"/>
     </g>
    </g>
    <g id="ytick_18">
     <g id="line2d_39">
      <path clip-path="url(#p9a164664ab)" d="M 740.661546 50.774693 
L 1071.51465 50.774693 
" style="fill:none;stroke:#cccccc;stroke-linecap:round;stroke-width:0.8;"/>
     </g>
    </g>
   </g>
   <g id="PolyCollection_7">
    <defs>
     <path d="M 755.700324 -598.307204 
L 755.700324 -597.551323 
L 780.764953 -587.601832 
L 805.829582 -533.969353 
L 830.894211 -504.343998 
L 855.95884 -515.177764 
L 881.023469 -493.644824 
L 906.088098 -502.562742 
L 931.152727 -524.415789 
L 956.217356 -623.514927 
L 981.281985 -571.509953 
L 1006.346614 -430.589231 
L 1006.346614 -435.128654 
L 1006.346614 -435.128654 
L 981.281985 -591.466513 
L 956.217356 -624.848108 
L 931.152727 -541.14714 
L 906.088098 -519.014573 
L 881.023469 -508.032751 
L 855.95884 -530.180905 
L 830.894211 -518.199962 
L 805.829582 -550.107587 
L 780.764953 -589.053651 
L 755.700324 -598.307204 
z
" id="mfe7c73de2a" style="stroke:#1f77b4;stroke-opacity:0.2;"/>
    </defs>
    <g clip-path="url(#p9a164664ab)">
     <use style="fill:#1f77b4;fill-opacity:0.2;stroke:#1f77b4;stroke-opacity:0.2;" x="0" xlink:href="#mfe7c73de2a" y="720"/>
    </g>
   </g>
   <g id="PolyCollection_8">
    <defs>
     <path d="M 755.700324 -432.798245 
L 755.700324 -430.711074 
L 780.764953 -428.589916 
L 805.829582 -426.628924 
L 830.894211 -427.145757 
L 855.95884 -427.702343 
L 881.023469 -431.663027 
L 906.088098 -433.025928 
L 931.152727 -439.26173 
L 956.217356 -450.053656 
L 981.281985 -460.897322 
L 1006.346614 -483.172801 
L 1006.346614 -487.359712 
L 1006.346614 -487.359712 
L 981.281985 -463.087239 
L 956.217356 -452.005546 
L 931.152727 -441.091718 
L 906.088098 -434.03249 
L 881.023469 -433.625831 
L 855.95884 -428.608599 
L 830.894211 -427.788012 
L 805.829582 -426.809795 
L 780.764953 -429.922705 
L 755.700324 -432.798245 
z
" id="m05d858f052" style="stroke:#ff7f0e;stroke-opacity:0.2;"/>
    </defs>
    <g clip-path="url(#p9a164664ab)">
     <use style="fill:#ff7f0e;fill-opacity:0.2;stroke:#ff7f0e;stroke-opacity:0.2;" x="0" xlink:href="#m05d858f052" y="720"/>
    </g>
   </g>
   <g id="PolyCollection_9">
    <defs>
     <path d="M 755.700324 -473.549323 
L 755.700324 -471.121615 
L 780.764953 -477.137175 
L 805.829582 -472.481988 
L 830.894211 -477.611658 
L 855.95884 -490.715428 
L 881.023469 -482.639665 
L 906.088098 -503.405055 
L 931.152727 -488.753271 
L 956.217356 -503.450834 
L 981.281985 -537.329059 
L 1006.346614 -625.57196 
L 1006.346614 -644.121062 
L 1006.346614 -644.121062 
L 981.281985 -544.875796 
L 956.217356 -505.715211 
L 931.152727 -496.324626 
L 906.088098 -511.718952 
L 881.023469 -484.753016 
L 855.95884 -494.95872 
L 830.894211 -481.427349 
L 805.829582 -477.928898 
L 780.764953 -481.938028 
L 755.700324 -473.549323 
z
" id="m1762edb6de" style="stroke:#2ca02c;stroke-opacity:0.2;"/>
    </defs>
    <g clip-path="url(#p9a164664ab)">
     <use style="fill:#2ca02c;fill-opacity:0.2;stroke:#2ca02c;stroke-opacity:0.2;" x="0" xlink:href="#m1762edb6de" y="720"/>
    </g>
   </g>
   <g id="line2d_40">
    <path clip-path="url(#p9a164664ab)" d="M 755.700324 122.076429 
L 780.764953 131.654275 
L 805.829582 178.348042 
L 830.894211 208.812249 
L 855.95884 197.354035 
L 881.023469 218.91842 
L 906.088098 209.76841 
L 931.152727 187.243275 
L 956.217356 95.868718 
L 981.281985 138.889377 
L 1006.346614 287.187432 
" style="fill:none;stroke:#1f77b4;stroke-linecap:round;stroke-width:1.5;"/>
   </g>
   <g id="line2d_41">
    <path clip-path="url(#p9a164664ab)" d="M 755.700324 288.307992 
L 780.764953 290.868334 
L 805.829582 293.285767 
L 830.894211 292.549385 
L 855.95884 291.865572 
L 881.023469 287.37986 
L 906.088098 286.473808 
L 931.152727 279.874186 
L 956.217356 269.046558 
L 981.281985 258.101735 
L 1006.346614 234.746037 
" style="fill:none;stroke:#ff7f0e;stroke-linecap:round;stroke-width:1.5;"/>
   </g>
   <g id="line2d_42">
    <path clip-path="url(#p9a164664ab)" d="M 755.700324 247.686577 
L 780.764953 240.642638 
L 805.829582 245.317569 
L 830.894211 240.601559 
L 855.95884 227.245906 
L 881.023469 236.342781 
L 906.088098 212.700002 
L 931.152727 227.44802 
L 956.217356 215.467064 
L 981.281985 179.17526 
L 1006.346614 85.917621 
" style="fill:none;stroke:#2ca02c;stroke-linecap:round;stroke-width:1.5;"/>
   </g>
   <g id="patch_9">
    <path d="M 740.661546 325.086625 
L 740.661546 24.72 
" style="fill:none;stroke:#cccccc;stroke-linecap:square;stroke-linejoin:miter;stroke-width:0.8;"/>
   </g>
   <g id="patch_10">
    <path d="M 740.661546 325.086625 
L 1071.51465 325.086625 
" style="fill:none;stroke:#cccccc;stroke-linecap:square;stroke-linejoin:miter;stroke-width:0.8;"/>
   </g>
   <g id="text_20">
    <!-- dataset = umls -->
    <g style="fill:#262626;" transform="translate(873.43341 18.72)scale(0.1 -0.1)">
     <defs>
      <path d="M 409 0 
L 409 4581 
L 972 4581 
L 972 0 
L 409 0 
z
" id="ArialMT-6c" transform="scale(0.015625)"/>
     </defs>
     <use xlink:href="#ArialMT-64"/>
     <use x="55.615234" xlink:href="#ArialMT-61"/>
     <use x="111.230469" xlink:href="#ArialMT-74"/>
     <use x="139.013672" xlink:href="#ArialMT-61"/>
     <use x="194.628906" xlink:href="#ArialMT-73"/>
     <use x="244.628906" xlink:href="#ArialMT-65"/>
     <use x="300.244141" xlink:href="#ArialMT-74"/>
     <use x="328.027344" xlink:href="#ArialMT-20"/>
     <use x="355.810547" xlink:href="#ArialMT-3d"/>
     <use x="414.208984" xlink:href="#ArialMT-20"/>
     <use x="441.992188" xlink:href="#ArialMT-75"/>
     <use x="497.607422" xlink:href="#ArialMT-6d"/>
     <use x="580.908203" xlink:href="#ArialMT-6c"/>
     <use x="603.125" xlink:href="#ArialMT-73"/>
    </g>
   </g>
  </g>
  <g id="axes_4">
   <g id="patch_11">
    <path d="M 1082.497319 325.086625 
L 1413.350423 325.086625 
L 1413.350423 24.72 
L 1082.497319 24.72 
z
" style="fill:#ffffff;"/>
   </g>
   <g id="matplotlib.axis_7">
    <g id="xtick_109">
     <g id="line2d_43">
      <path clip-path="url(#p08c6a65632)" d="M 1155.734363 325.086625 
L 1155.734363 24.72 
" style="fill:none;stroke:#cccccc;stroke-linecap:round;stroke-width:0.8;"/>
     </g>
     <g id="text_21">
      <!-- $\mathdefault{10^{1}}$ -->
      <g style="fill:#262626;" transform="translate(1147.884363 342.399125)scale(0.1 -0.1)">
       <use transform="translate(0 0.99375)" xlink:href="#ArialMT-31"/>
       <use transform="translate(55.615234 0.99375)" xlink:href="#ArialMT-30"/>
       <use transform="translate(112.972813 70.6875)scale(0.7)" xlink:href="#ArialMT-31"/>
      </g>
     </g>
    </g>
    <g id="xtick_110">
     <g id="line2d_44">
      <path clip-path="url(#p08c6a65632)" d="M 1238.997259 325.086625 
L 1238.997259 24.72 
" style="fill:none;stroke:#cccccc;stroke-linecap:round;stroke-width:0.8;"/>
     </g>
     <g id="text_22">
      <!-- $\mathdefault{10^{2}}$ -->
      <g style="fill:#262626;" transform="translate(1231.147259 342.399125)scale(0.1 -0.1)">
       <use transform="translate(0 0.99375)" xlink:href="#ArialMT-31"/>
       <use transform="translate(55.615234 0.99375)" xlink:href="#ArialMT-30"/>
       <use transform="translate(112.972813 70.6875)scale(0.7)" xlink:href="#ArialMT-32"/>
      </g>
     </g>
    </g>
    <g id="xtick_111">
     <g id="line2d_45">
      <path clip-path="url(#p08c6a65632)" d="M 1322.260154 325.086625 
L 1322.260154 24.72 
" style="fill:none;stroke:#cccccc;stroke-linecap:round;stroke-width:0.8;"/>
     </g>
     <g id="text_23">
      <!-- $\mathdefault{10^{3}}$ -->
      <g style="fill:#262626;" transform="translate(1314.410154 342.399125)scale(0.1 -0.1)">
       <use transform="translate(0 0.99375)" xlink:href="#ArialMT-31"/>
       <use transform="translate(55.615234 0.99375)" xlink:href="#ArialMT-30"/>
       <use transform="translate(112.972813 70.6875)scale(0.7)" xlink:href="#ArialMT-33"/>
      </g>
     </g>
    </g>
    <g id="xtick_112">
     <g id="line2d_46">
      <path clip-path="url(#p08c6a65632)" d="M 1405.523049 325.086625 
L 1405.523049 24.72 
" style="fill:none;stroke:#cccccc;stroke-linecap:round;stroke-width:0.8;"/>
     </g>
     <g id="text_24">
      <!-- $\mathdefault{10^{4}}$ -->
      <g style="fill:#262626;" transform="translate(1397.673049 342.299125)scale(0.1 -0.1)">
       <use transform="translate(0 0.201563)" xlink:href="#ArialMT-31"/>
       <use transform="translate(55.615234 0.201563)" xlink:href="#ArialMT-30"/>
       <use transform="translate(112.972813 69.895313)scale(0.7)" xlink:href="#ArialMT-34"/>
      </g>
     </g>
    </g>
    <g id="xtick_113"/>
    <g id="xtick_114"/>
    <g id="xtick_115"/>
    <g id="xtick_116"/>
    <g id="xtick_117"/>
    <g id="xtick_118"/>
    <g id="xtick_119"/>
    <g id="xtick_120"/>
    <g id="xtick_121"/>
    <g id="xtick_122"/>
    <g id="xtick_123"/>
    <g id="xtick_124"/>
    <g id="xtick_125"/>
    <g id="xtick_126"/>
    <g id="xtick_127"/>
    <g id="xtick_128"/>
    <g id="xtick_129"/>
    <g id="xtick_130"/>
    <g id="xtick_131"/>
    <g id="xtick_132"/>
    <g id="xtick_133"/>
    <g id="xtick_134"/>
    <g id="xtick_135"/>
    <g id="xtick_136"/>
    <g id="xtick_137"/>
    <g id="xtick_138"/>
    <g id="xtick_139"/>
    <g id="xtick_140"/>
    <g id="xtick_141"/>
    <g id="xtick_142"/>
    <g id="xtick_143"/>
    <g id="xtick_144"/>
    <g id="text_25">
     <!-- batch size -->
     <g style="fill:#262626;" transform="translate(1225.412934 355.544438)scale(0.1 -0.1)">
      <use xlink:href="#ArialMT-62"/>
      <use x="55.615234" xlink:href="#ArialMT-61"/>
      <use x="111.230469" xlink:href="#ArialMT-74"/>
      <use x="139.013672" xlink:href="#ArialMT-63"/>
      <use x="189.013672" xlink:href="#ArialMT-68"/>
      <use x="244.628906" xlink:href="#ArialMT-20"/>
      <use x="272.412109" xlink:href="#ArialMT-73"/>
      <use x="322.412109" xlink:href="#ArialMT-69"/>
      <use x="344.628906" xlink:href="#ArialMT-7a"/>
      <use x="394.628906" xlink:href="#ArialMT-65"/>
     </g>
    </g>
   </g>
   <g id="matplotlib.axis_8">
    <g id="ytick_19">
     <g id="line2d_47">
      <path clip-path="url(#p08c6a65632)" d="M 1082.497319 282.510609 
L 1413.350423 282.510609 
" style="fill:none;stroke:#cccccc;stroke-linecap:round;stroke-width:0.8;"/>
     </g>
    </g>
    <g id="ytick_20">
     <g id="line2d_48">
      <path clip-path="url(#p08c6a65632)" d="M 1082.497319 236.163426 
L 1413.350423 236.163426 
" style="fill:none;stroke:#cccccc;stroke-linecap:round;stroke-width:0.8;"/>
     </g>
    </g>
    <g id="ytick_21">
     <g id="line2d_49">
      <path clip-path="url(#p08c6a65632)" d="M 1082.497319 189.816242 
L 1413.350423 189.816242 
" style="fill:none;stroke:#cccccc;stroke-linecap:round;stroke-width:0.8;"/>
     </g>
    </g>
    <g id="ytick_22">
     <g id="line2d_50">
      <path clip-path="url(#p08c6a65632)" d="M 1082.497319 143.469059 
L 1413.350423 143.469059 
" style="fill:none;stroke:#cccccc;stroke-linecap:round;stroke-width:0.8;"/>
     </g>
    </g>
    <g id="ytick_23">
     <g id="line2d_51">
      <path clip-path="url(#p08c6a65632)" d="M 1082.497319 97.121876 
L 1413.350423 97.121876 
" style="fill:none;stroke:#cccccc;stroke-linecap:round;stroke-width:0.8;"/>
     </g>
    </g>
    <g id="ytick_24">
     <g id="line2d_52">
      <path clip-path="url(#p08c6a65632)" d="M 1082.497319 50.774693 
L 1413.350423 50.774693 
" style="fill:none;stroke:#cccccc;stroke-linecap:round;stroke-width:0.8;"/>
     </g>
    </g>
   </g>
   <g id="PolyCollection_10">
    <defs>
     <path d="M 1097.536097 -510.704591 
L 1097.536097 -509.143557 
L 1122.600726 -519.227278 
L 1147.665355 -519.836662 
L 1172.729984 -522.244425 
L 1197.794613 -481.942246 
L 1222.859242 -518.057835 
L 1247.923871 -520.820186 
L 1272.9885 -522.499039 
L 1298.053129 -462.590409 
L 1323.117758 -446.109811 
L 1348.182387 -452.312617 
L 1373.247016 -415.854992 
L 1373.247016 -417.236218 
L 1373.247016 -417.236218 
L 1348.182387 -459.843048 
L 1323.117758 -452.159282 
L 1298.053129 -469.235378 
L 1272.9885 -523.48067 
L 1247.923871 -521.45193 
L 1222.859242 -518.660512 
L 1197.794613 -488.872781 
L 1172.729984 -523.145265 
L 1147.665355 -520.794415 
L 1122.600726 -520.03988 
L 1097.536097 -510.704591 
z
" id="m2ad8d7f7db" style="stroke:#1f77b4;stroke-opacity:0.2;"/>
    </defs>
    <g clip-path="url(#p08c6a65632)">
     <use style="fill:#1f77b4;fill-opacity:0.2;stroke:#1f77b4;stroke-opacity:0.2;" x="0" xlink:href="#m2ad8d7f7db" y="720"/>
    </g>
   </g>
   <g id="PolyCollection_11">
    <defs>
     <path d="M 1097.536097 -409.148829 
L 1097.536097 -408.566403 
L 1122.600726 -417.353346 
L 1147.665355 -417.062577 
L 1172.729984 -418.05561 
L 1197.794613 -417.419356 
L 1222.859242 -416.292591 
L 1247.923871 -418.819392 
L 1272.9885 -422.299894 
L 1298.053129 -427.404421 
L 1323.117758 -426.701854 
L 1348.182387 -439.752843 
L 1373.247016 -445.739397 
L 1373.247016 -450.275013 
L 1373.247016 -450.275013 
L 1348.182387 -440.807014 
L 1323.117758 -426.839759 
L 1298.053129 -428.239297 
L 1272.9885 -422.852033 
L 1247.923871 -419.286577 
L 1222.859242 -416.438931 
L 1197.794613 -417.522261 
L 1172.729984 -418.267604 
L 1147.665355 -417.173842 
L 1122.600726 -417.497666 
L 1097.536097 -409.148829 
z
" id="m1a572cb4a0" style="stroke:#ff7f0e;stroke-opacity:0.2;"/>
    </defs>
    <g clip-path="url(#p08c6a65632)">
     <use style="fill:#ff7f0e;fill-opacity:0.2;stroke:#ff7f0e;stroke-opacity:0.2;" x="0" xlink:href="#m1a572cb4a0" y="720"/>
    </g>
   </g>
   <g id="PolyCollection_12">
    <defs>
     <path d="M 1097.536097 -416.095512 
L 1097.536097 -415.178901 
L 1122.600726 -424.776184 
L 1147.665355 -425.395998 
L 1172.729984 -426.846169 
L 1197.794613 -426.232754 
L 1222.859242 -428.11163 
L 1247.923871 -439.877931 
L 1272.9885 -436.06871 
L 1298.053129 -436.701169 
L 1323.117758 -444.194258 
L 1348.182387 -467.618068 
L 1373.247016 -476.790388 
L 1373.247016 -483.288279 
L 1373.247016 -483.288279 
L 1348.182387 -468.277372 
L 1323.117758 -444.588258 
L 1298.053129 -437.345307 
L 1272.9885 -437.048184 
L 1247.923871 -441.386022 
L 1222.859242 -428.676975 
L 1197.794613 -426.637296 
L 1172.729984 -427.287906 
L 1147.665355 -425.815004 
L 1122.600726 -425.119017 
L 1097.536097 -416.095512 
z
" id="m7e69cd49ed" style="stroke:#2ca02c;stroke-opacity:0.2;"/>
    </defs>
    <g clip-path="url(#p08c6a65632)">
     <use style="fill:#2ca02c;fill-opacity:0.2;stroke:#2ca02c;stroke-opacity:0.2;" x="0" xlink:href="#m7e69cd49ed" y="720"/>
    </g>
   </g>
   <g id="line2d_53">
    <path clip-path="url(#p08c6a65632)" d="M 1097.536097 210.099037 
L 1122.600726 200.375483 
L 1147.665355 199.676296 
L 1172.729984 197.291925 
L 1197.794613 234.592281 
L 1222.859242 201.629218 
L 1247.923871 198.851212 
L 1272.9885 197.036962 
L 1298.053129 254.082435 
L 1323.117758 271.074833 
L 1348.182387 263.799285 
L 1373.247016 303.476038 
" style="fill:none;stroke:#1f77b4;stroke-linecap:round;stroke-width:1.5;"/>
   </g>
   <g id="line2d_54">
    <path clip-path="url(#p08c6a65632)" d="M 1097.536097 311.147491 
L 1122.600726 302.57582 
L 1147.665355 302.886446 
L 1172.729984 301.836359 
L 1197.794613 302.531134 
L 1222.859242 303.633433 
L 1247.923871 300.956976 
L 1272.9885 297.419789 
L 1298.053129 292.1902 
L 1323.117758 293.231833 
L 1348.182387 279.7699 
L 1373.247016 271.986834 
" style="fill:none;stroke:#ff7f0e;stroke-linecap:round;stroke-width:1.5;"/>
   </g>
   <g id="line2d_55">
    <path clip-path="url(#p08c6a65632)" d="M 1097.536097 304.340075 
L 1122.600726 295.051956 
L 1147.665355 294.406245 
L 1172.729984 292.935566 
L 1197.794613 293.567636 
L 1222.859242 291.627193 
L 1247.923871 279.387521 
L 1272.9885 283.447978 
L 1298.053129 282.983129 
L 1323.117758 275.610871 
L 1348.182387 252.056346 
L 1373.247016 239.735409 
" style="fill:none;stroke:#2ca02c;stroke-linecap:round;stroke-width:1.5;"/>
   </g>
   <g id="patch_12">
    <path d="M 1082.497319 325.086625 
L 1082.497319 24.72 
" style="fill:none;stroke:#cccccc;stroke-linecap:square;stroke-linejoin:miter;stroke-width:0.8;"/>
   </g>
   <g id="patch_13">
    <path d="M 1082.497319 325.086625 
L 1413.350423 325.086625 
" style="fill:none;stroke:#cccccc;stroke-linecap:square;stroke-linejoin:miter;stroke-width:0.8;"/>
   </g>
   <g id="text_26">
    <!-- dataset = kinships -->
    <g style="fill:#262626;" transform="translate(1207.762152 18.72)scale(0.1 -0.1)">
     <defs>
      <path d="M 425 0 
L 425 4581 
L 988 4581 
L 988 1969 
L 2319 3319 
L 3047 3319 
L 1778 2088 
L 3175 0 
L 2481 0 
L 1384 1697 
L 988 1316 
L 988 0 
L 425 0 
z
" id="ArialMT-6b" transform="scale(0.015625)"/>
      <path d="M 422 -1272 
L 422 3319 
L 934 3319 
L 934 2888 
Q 1116 3141 1344 3267 
Q 1572 3394 1897 3394 
Q 2322 3394 2647 3175 
Q 2972 2956 3137 2557 
Q 3303 2159 3303 1684 
Q 3303 1175 3120 767 
Q 2938 359 2589 142 
Q 2241 -75 1856 -75 
Q 1575 -75 1351 44 
Q 1128 163 984 344 
L 984 -1272 
L 422 -1272 
z
M 931 1641 
Q 931 1000 1190 694 
Q 1450 388 1819 388 
Q 2194 388 2461 705 
Q 2728 1022 2728 1688 
Q 2728 2322 2467 2637 
Q 2206 2953 1844 2953 
Q 1484 2953 1207 2617 
Q 931 2281 931 1641 
z
" id="ArialMT-70" transform="scale(0.015625)"/>
     </defs>
     <use xlink:href="#ArialMT-64"/>
     <use x="55.615234" xlink:href="#ArialMT-61"/>
     <use x="111.230469" xlink:href="#ArialMT-74"/>
     <use x="139.013672" xlink:href="#ArialMT-61"/>
     <use x="194.628906" xlink:href="#ArialMT-73"/>
     <use x="244.628906" xlink:href="#ArialMT-65"/>
     <use x="300.244141" xlink:href="#ArialMT-74"/>
     <use x="328.027344" xlink:href="#ArialMT-20"/>
     <use x="355.810547" xlink:href="#ArialMT-3d"/>
     <use x="414.208984" xlink:href="#ArialMT-20"/>
     <use x="441.992188" xlink:href="#ArialMT-6b"/>
     <use x="491.992188" xlink:href="#ArialMT-69"/>
     <use x="514.208984" xlink:href="#ArialMT-6e"/>
     <use x="569.824219" xlink:href="#ArialMT-73"/>
     <use x="619.824219" xlink:href="#ArialMT-68"/>
     <use x="675.439453" xlink:href="#ArialMT-69"/>
     <use x="697.65625" xlink:href="#ArialMT-70"/>
     <use x="753.271484" xlink:href="#ArialMT-73"/>
    </g>
   </g>
  </g>
  <g id="axes_5">
   <g id="patch_14">
    <path d="M 56.99 672.726625 
L 387.843103 672.726625 
L 387.843103 372.36 
L 56.99 372.36 
z
" style="fill:#ffffff;"/>
   </g>
   <g id="matplotlib.axis_9">
    <g id="xtick_145">
     <g id="line2d_56">
      <path clip-path="url(#p2e77669038)" d="M 130.227044 672.726625 
L 130.227044 372.36 
" style="fill:none;stroke:#cccccc;stroke-linecap:round;stroke-width:0.8;"/>
     </g>
     <g id="text_27">
      <!-- $\mathdefault{10^{1}}$ -->
      <g style="fill:#262626;" transform="translate(122.377044 690.039125)scale(0.1 -0.1)">
       <use transform="translate(0 0.99375)" xlink:href="#ArialMT-31"/>
       <use transform="translate(55.615234 0.99375)" xlink:href="#ArialMT-30"/>
       <use transform="translate(112.972813 70.6875)scale(0.7)" xlink:href="#ArialMT-31"/>
      </g>
     </g>
    </g>
    <g id="xtick_146">
     <g id="line2d_57">
      <path clip-path="url(#p2e77669038)" d="M 213.489939 672.726625 
L 213.489939 372.36 
" style="fill:none;stroke:#cccccc;stroke-linecap:round;stroke-width:0.8;"/>
     </g>
     <g id="text_28">
      <!-- $\mathdefault{10^{2}}$ -->
      <g style="fill:#262626;" transform="translate(205.639939 690.039125)scale(0.1 -0.1)">
       <use transform="translate(0 0.99375)" xlink:href="#ArialMT-31"/>
       <use transform="translate(55.615234 0.99375)" xlink:href="#ArialMT-30"/>
       <use transform="translate(112.972813 70.6875)scale(0.7)" xlink:href="#ArialMT-32"/>
      </g>
     </g>
    </g>
    <g id="xtick_147">
     <g id="line2d_58">
      <path clip-path="url(#p2e77669038)" d="M 296.752835 672.726625 
L 296.752835 372.36 
" style="fill:none;stroke:#cccccc;stroke-linecap:round;stroke-width:0.8;"/>
     </g>
     <g id="text_29">
      <!-- $\mathdefault{10^{3}}$ -->
      <g style="fill:#262626;" transform="translate(288.902835 690.039125)scale(0.1 -0.1)">
       <use transform="translate(0 0.99375)" xlink:href="#ArialMT-31"/>
       <use transform="translate(55.615234 0.99375)" xlink:href="#ArialMT-30"/>
       <use transform="translate(112.972813 70.6875)scale(0.7)" xlink:href="#ArialMT-33"/>
      </g>
     </g>
    </g>
    <g id="xtick_148">
     <g id="line2d_59">
      <path clip-path="url(#p2e77669038)" d="M 380.01573 672.726625 
L 380.01573 372.36 
" style="fill:none;stroke:#cccccc;stroke-linecap:round;stroke-width:0.8;"/>
     </g>
     <g id="text_30">
      <!-- $\mathdefault{10^{4}}$ -->
      <g style="fill:#262626;" transform="translate(372.16573 689.939125)scale(0.1 -0.1)">
       <use transform="translate(0 0.201563)" xlink:href="#ArialMT-31"/>
       <use transform="translate(55.615234 0.201563)" xlink:href="#ArialMT-30"/>
       <use transform="translate(112.972813 69.895313)scale(0.7)" xlink:href="#ArialMT-34"/>
      </g>
     </g>
    </g>
    <g id="xtick_149"/>
    <g id="xtick_150"/>
    <g id="xtick_151"/>
    <g id="xtick_152"/>
    <g id="xtick_153"/>
    <g id="xtick_154"/>
    <g id="xtick_155"/>
    <g id="xtick_156"/>
    <g id="xtick_157"/>
    <g id="xtick_158"/>
    <g id="xtick_159"/>
    <g id="xtick_160"/>
    <g id="xtick_161"/>
    <g id="xtick_162"/>
    <g id="xtick_163"/>
    <g id="xtick_164"/>
    <g id="xtick_165"/>
    <g id="xtick_166"/>
    <g id="xtick_167"/>
    <g id="xtick_168"/>
    <g id="xtick_169"/>
    <g id="xtick_170"/>
    <g id="xtick_171"/>
    <g id="xtick_172"/>
    <g id="xtick_173"/>
    <g id="xtick_174"/>
    <g id="xtick_175"/>
    <g id="xtick_176"/>
    <g id="xtick_177"/>
    <g id="xtick_178"/>
    <g id="xtick_179"/>
    <g id="xtick_180"/>
    <g id="text_31">
     <!-- batch size -->
     <g style="fill:#262626;" transform="translate(199.905614 703.184438)scale(0.1 -0.1)">
      <use xlink:href="#ArialMT-62"/>
      <use x="55.615234" xlink:href="#ArialMT-61"/>
      <use x="111.230469" xlink:href="#ArialMT-74"/>
      <use x="139.013672" xlink:href="#ArialMT-63"/>
      <use x="189.013672" xlink:href="#ArialMT-68"/>
      <use x="244.628906" xlink:href="#ArialMT-20"/>
      <use x="272.412109" xlink:href="#ArialMT-73"/>
      <use x="322.412109" xlink:href="#ArialMT-69"/>
      <use x="344.628906" xlink:href="#ArialMT-7a"/>
      <use x="394.628906" xlink:href="#ArialMT-65"/>
     </g>
    </g>
   </g>
   <g id="matplotlib.axis_10">
    <g id="ytick_25">
     <g id="line2d_60">
      <path clip-path="url(#p2e77669038)" d="M 56.99 630.150609 
L 387.843103 630.150609 
" style="fill:none;stroke:#cccccc;stroke-linecap:round;stroke-width:0.8;"/>
     </g>
     <g id="text_32">
      <!-- 0.002 -->
      <g style="fill:#262626;" transform="translate(24.968125 633.729515)scale(0.1 -0.1)">
       <use xlink:href="#ArialMT-30"/>
       <use x="55.615234" xlink:href="#ArialMT-2e"/>
       <use x="83.398438" xlink:href="#ArialMT-30"/>
       <use x="139.013672" xlink:href="#ArialMT-30"/>
       <use x="194.628906" xlink:href="#ArialMT-32"/>
      </g>
     </g>
    </g>
    <g id="ytick_26">
     <g id="line2d_61">
      <path clip-path="url(#p2e77669038)" d="M 56.99 583.803426 
L 387.843103 583.803426 
" style="fill:none;stroke:#cccccc;stroke-linecap:round;stroke-width:0.8;"/>
     </g>
     <g id="text_33">
      <!-- 0.004 -->
      <g style="fill:#262626;" transform="translate(24.968125 587.382332)scale(0.1 -0.1)">
       <use xlink:href="#ArialMT-30"/>
       <use x="55.615234" xlink:href="#ArialMT-2e"/>
       <use x="83.398438" xlink:href="#ArialMT-30"/>
       <use x="139.013672" xlink:href="#ArialMT-30"/>
       <use x="194.628906" xlink:href="#ArialMT-34"/>
      </g>
     </g>
    </g>
    <g id="ytick_27">
     <g id="line2d_62">
      <path clip-path="url(#p2e77669038)" d="M 56.99 537.456242 
L 387.843103 537.456242 
" style="fill:none;stroke:#cccccc;stroke-linecap:round;stroke-width:0.8;"/>
     </g>
     <g id="text_34">
      <!-- 0.006 -->
      <g style="fill:#262626;" transform="translate(24.968125 541.035149)scale(0.1 -0.1)">
       <use xlink:href="#ArialMT-30"/>
       <use x="55.615234" xlink:href="#ArialMT-2e"/>
       <use x="83.398438" xlink:href="#ArialMT-30"/>
       <use x="139.013672" xlink:href="#ArialMT-30"/>
       <use x="194.628906" xlink:href="#ArialMT-36"/>
      </g>
     </g>
    </g>
    <g id="ytick_28">
     <g id="line2d_63">
      <path clip-path="url(#p2e77669038)" d="M 56.99 491.109059 
L 387.843103 491.109059 
" style="fill:none;stroke:#cccccc;stroke-linecap:round;stroke-width:0.8;"/>
     </g>
     <g id="text_35">
      <!-- 0.008 -->
      <g style="fill:#262626;" transform="translate(24.968125 494.687966)scale(0.1 -0.1)">
       <use xlink:href="#ArialMT-30"/>
       <use x="55.615234" xlink:href="#ArialMT-2e"/>
       <use x="83.398438" xlink:href="#ArialMT-30"/>
       <use x="139.013672" xlink:href="#ArialMT-30"/>
       <use x="194.628906" xlink:href="#ArialMT-38"/>
      </g>
     </g>
    </g>
    <g id="ytick_29">
     <g id="line2d_64">
      <path clip-path="url(#p2e77669038)" d="M 56.99 444.761876 
L 387.843103 444.761876 
" style="fill:none;stroke:#cccccc;stroke-linecap:round;stroke-width:0.8;"/>
     </g>
     <g id="text_36">
      <!-- 0.010 -->
      <g style="fill:#262626;" transform="translate(24.968125 448.340782)scale(0.1 -0.1)">
       <use xlink:href="#ArialMT-30"/>
       <use x="55.615234" xlink:href="#ArialMT-2e"/>
       <use x="83.398438" xlink:href="#ArialMT-30"/>
       <use x="139.013672" xlink:href="#ArialMT-31"/>
       <use x="194.628906" xlink:href="#ArialMT-30"/>
      </g>
     </g>
    </g>
    <g id="ytick_30">
     <g id="line2d_65">
      <path clip-path="url(#p2e77669038)" d="M 56.99 398.414693 
L 387.843103 398.414693 
" style="fill:none;stroke:#cccccc;stroke-linecap:round;stroke-width:0.8;"/>
     </g>
     <g id="text_37">
      <!-- 0.012 -->
      <g style="fill:#262626;" transform="translate(24.968125 401.993599)scale(0.1 -0.1)">
       <use xlink:href="#ArialMT-30"/>
       <use x="55.615234" xlink:href="#ArialMT-2e"/>
       <use x="83.398438" xlink:href="#ArialMT-30"/>
       <use x="139.013672" xlink:href="#ArialMT-31"/>
       <use x="194.628906" xlink:href="#ArialMT-32"/>
      </g>
     </g>
    </g>
    <g id="text_38">
     <!-- time (s)/batch -->
     <g style="fill:#262626;" transform="translate(18.863437 552.826906)rotate(-90)scale(0.1 -0.1)">
      <use xlink:href="#ArialMT-74"/>
      <use x="27.783203" xlink:href="#ArialMT-69"/>
      <use x="50" xlink:href="#ArialMT-6d"/>
      <use x="133.300781" xlink:href="#ArialMT-65"/>
      <use x="188.916016" xlink:href="#ArialMT-20"/>
      <use x="216.699219" xlink:href="#ArialMT-28"/>
      <use x="250" xlink:href="#ArialMT-73"/>
      <use x="300" xlink:href="#ArialMT-29"/>
      <use x="333.300781" xlink:href="#ArialMT-2f"/>
      <use x="361.083984" xlink:href="#ArialMT-62"/>
      <use x="416.699219" xlink:href="#ArialMT-61"/>
      <use x="472.314453" xlink:href="#ArialMT-74"/>
      <use x="500.097656" xlink:href="#ArialMT-63"/>
      <use x="550.097656" xlink:href="#ArialMT-68"/>
     </g>
    </g>
   </g>
   <g id="PolyCollection_13">
    <defs>
     <path d="M 72.028777 -228.016582 
L 72.028777 -209.189305 
L 97.093406 -212.259479 
L 122.158036 -214.327894 
L 147.222665 -211.119099 
L 172.287294 -217.38595 
L 197.351923 -317.078566 
L 222.416552 -319.787022 
L 247.481181 -165.814138 
L 272.54581 -220.98088 
L 297.610439 -134.558013 
L 322.675068 -110.197966 
L 347.739697 -104.054492 
L 372.804326 -123.502993 
L 372.804326 -128.006691 
L 372.804326 -128.006691 
L 347.739697 -105.875691 
L 322.675068 -120.701349 
L 297.610439 -151.996272 
L 272.54581 -246.522227 
L 247.481181 -186.96418 
L 222.416552 -333.986972 
L 197.351923 -330.178262 
L 172.287294 -238.816639 
L 147.222665 -229.263914 
L 122.158036 -234.162076 
L 97.093406 -230.710308 
L 72.028777 -228.016582 
z
" id="m803bfa8402" style="stroke:#1f77b4;stroke-opacity:0.2;"/>
    </defs>
    <g clip-path="url(#p2e77669038)">
     <use style="fill:#1f77b4;fill-opacity:0.2;stroke:#1f77b4;stroke-opacity:0.2;" x="0" xlink:href="#m803bfa8402" y="720"/>
    </g>
   </g>
   <g id="PolyCollection_14">
    <defs>
     <path d="M 72.028777 -72.560093 
L 72.028777 -70.768965 
L 97.093406 -101.558492 
L 122.158036 -103.351423 
L 147.222665 -104.522558 
L 172.287294 -106.382973 
L 197.351923 -105.741771 
L 222.416552 -108.775577 
L 247.481181 -112.385611 
L 272.54581 -114.548796 
L 297.610439 -123.886307 
L 322.675068 -147.473372 
L 347.739697 -180.593854 
L 372.804326 -250.645845 
L 372.804326 -254.452444 
L 372.804326 -254.452444 
L 347.739697 -191.840803 
L 322.675068 -154.025708 
L 297.610439 -124.897118 
L 272.54581 -114.746808 
L 247.481181 -113.556141 
L 222.416552 -109.763322 
L 197.351923 -106.918095 
L 172.287294 -108.721432 
L 147.222665 -106.562718 
L 122.158036 -104.379136 
L 97.093406 -105.197436 
L 72.028777 -72.560093 
z
" id="m7550da33e9" style="stroke:#ff7f0e;stroke-opacity:0.2;"/>
    </defs>
    <g clip-path="url(#p2e77669038)">
     <use style="fill:#ff7f0e;fill-opacity:0.2;stroke:#ff7f0e;stroke-opacity:0.2;" x="0" xlink:href="#m7550da33e9" y="720"/>
    </g>
   </g>
   <g id="PolyCollection_15">
    <defs>
     <path d="M 72.028777 -68.525922 
L 72.028777 -67.580182 
L 97.093406 -80.559881 
L 122.158036 -81.919154 
L 147.222665 -85.457595 
L 172.287294 -85.566396 
L 197.351923 -93.260813 
L 222.416552 -99.793205 
L 247.481181 -99.264292 
L 272.54581 -105.206028 
L 297.610439 -128.036447 
L 322.675068 -134.058703 
L 347.739697 -141.734791 
L 372.804326 -92.987466 
L 372.804326 -96.396761 
L 372.804326 -96.396761 
L 347.739697 -157.00078 
L 322.675068 -141.280623 
L 297.610439 -131.295247 
L 272.54581 -105.34199 
L 247.481181 -99.416481 
L 222.416552 -100.7624 
L 197.351923 -94.008535 
L 172.287294 -86.170195 
L 147.222665 -86.00855 
L 122.158036 -82.122372 
L 97.093406 -80.68862 
L 72.028777 -68.525922 
z
" id="md64d4a9c5e" style="stroke:#2ca02c;stroke-opacity:0.2;"/>
    </defs>
    <g clip-path="url(#p2e77669038)">
     <use style="fill:#2ca02c;fill-opacity:0.2;stroke:#2ca02c;stroke-opacity:0.2;" x="0" xlink:href="#md64d4a9c5e" y="720"/>
    </g>
   </g>
   <g id="line2d_66">
    <path clip-path="url(#p2e77669038)" d="M 72.028777 501.291095 
L 97.093406 498.669885 
L 122.158036 495.400508 
L 147.222665 499.666949 
L 172.287294 491.759306 
L 197.351923 396.909775 
L 222.416552 393.289053 
L 247.481181 543.641532 
L 272.54581 486.861159 
L 297.610439 576.992391 
L 322.675068 604.764034 
L 347.739697 615.059029 
L 372.804326 594.484073 
" style="fill:none;stroke:#1f77b4;stroke-linecap:round;stroke-width:1.5;"/>
   </g>
   <g id="line2d_67">
    <path clip-path="url(#p2e77669038)" d="M 72.028777 648.344731 
L 97.093406 616.947841 
L 122.158036 616.13419 
L 147.222665 614.467176 
L 172.287294 612.50201 
L 197.351923 613.703699 
L 222.416552 610.709978 
L 247.481181 607.03268 
L 272.54581 605.358255 
L 297.610439 595.614559 
L 322.675068 569.574704 
L 347.739697 535.054528 
L 372.804326 467.450114 
" style="fill:none;stroke:#ff7f0e;stroke-linecap:round;stroke-width:1.5;"/>
   </g>
   <g id="line2d_68">
    <path clip-path="url(#p2e77669038)" d="M 72.028777 651.929576 
L 97.093406 639.374653 
L 122.158036 637.982622 
L 147.222665 634.275287 
L 172.287294 634.153195 
L 197.351923 626.385499 
L 222.416552 619.682103 
L 247.481181 620.657574 
L 272.54581 614.728623 
L 297.610439 590.457902 
L 322.675068 582.373954 
L 347.739697 570.577705 
L 372.804326 625.41631 
" style="fill:none;stroke:#2ca02c;stroke-linecap:round;stroke-width:1.5;"/>
   </g>
   <g id="patch_15">
    <path d="M 56.99 672.726625 
L 56.99 372.36 
" style="fill:none;stroke:#cccccc;stroke-linecap:square;stroke-linejoin:miter;stroke-width:0.8;"/>
   </g>
   <g id="patch_16">
    <path d="M 56.99 672.726625 
L 387.843103 672.726625 
" style="fill:none;stroke:#cccccc;stroke-linecap:square;stroke-linejoin:miter;stroke-width:0.8;"/>
   </g>
   <g id="text_39">
    <!-- dataset = dbpedia50 -->
    <g style="fill:#262626;" transform="translate(176.963427 366.36)scale(0.1 -0.1)">
     <defs>
      <path d="M 266 1200 
L 856 1250 
Q 922 819 1161 601 
Q 1400 384 1738 384 
Q 2144 384 2425 690 
Q 2706 997 2706 1503 
Q 2706 1984 2436 2262 
Q 2166 2541 1728 2541 
Q 1456 2541 1237 2417 
Q 1019 2294 894 2097 
L 366 2166 
L 809 4519 
L 3088 4519 
L 3088 3981 
L 1259 3981 
L 1013 2750 
Q 1425 3038 1878 3038 
Q 2478 3038 2890 2622 
Q 3303 2206 3303 1553 
Q 3303 931 2941 478 
Q 2500 -78 1738 -78 
Q 1113 -78 717 272 
Q 322 622 266 1200 
z
" id="ArialMT-35" transform="scale(0.015625)"/>
     </defs>
     <use xlink:href="#ArialMT-64"/>
     <use x="55.615234" xlink:href="#ArialMT-61"/>
     <use x="111.230469" xlink:href="#ArialMT-74"/>
     <use x="139.013672" xlink:href="#ArialMT-61"/>
     <use x="194.628906" xlink:href="#ArialMT-73"/>
     <use x="244.628906" xlink:href="#ArialMT-65"/>
     <use x="300.244141" xlink:href="#ArialMT-74"/>
     <use x="328.027344" xlink:href="#ArialMT-20"/>
     <use x="355.810547" xlink:href="#ArialMT-3d"/>
     <use x="414.208984" xlink:href="#ArialMT-20"/>
     <use x="441.992188" xlink:href="#ArialMT-64"/>
     <use x="497.607422" xlink:href="#ArialMT-62"/>
     <use x="553.222656" xlink:href="#ArialMT-70"/>
     <use x="608.837891" xlink:href="#ArialMT-65"/>
     <use x="664.453125" xlink:href="#ArialMT-64"/>
     <use x="720.068359" xlink:href="#ArialMT-69"/>
     <use x="742.285156" xlink:href="#ArialMT-61"/>
     <use x="797.900391" xlink:href="#ArialMT-35"/>
     <use x="853.515625" xlink:href="#ArialMT-30"/>
    </g>
   </g>
  </g>
  <g id="legend_1">
   <g id="text_40">
    <!-- sampler -->
    <g style="fill:#262626;" transform="translate(1463.465156 341.308594)scale(0.1 -0.1)">
     <use xlink:href="#ArialMT-73"/>
     <use x="50" xlink:href="#ArialMT-61"/>
     <use x="105.615234" xlink:href="#ArialMT-6d"/>
     <use x="188.916016" xlink:href="#ArialMT-70"/>
     <use x="244.53125" xlink:href="#ArialMT-6c"/>
     <use x="266.748047" xlink:href="#ArialMT-65"/>
     <use x="322.363281" xlink:href="#ArialMT-72"/>
    </g>
   </g>
   <g id="line2d_69">
    <path d="M 1438.614375 351.953906 
L 1458.614375 351.953906 
" style="fill:none;stroke:#1f77b4;stroke-linecap:round;stroke-width:1.5;"/>
   </g>
   <g id="line2d_70"/>
   <g id="text_41">
    <!-- basic -->
    <g style="fill:#262626;" transform="translate(1466.614375 355.453906)scale(0.1 -0.1)">
     <use xlink:href="#ArialMT-62"/>
     <use x="55.615234" xlink:href="#ArialMT-61"/>
     <use x="111.230469" xlink:href="#ArialMT-73"/>
     <use x="161.230469" xlink:href="#ArialMT-69"/>
     <use x="183.447266" xlink:href="#ArialMT-63"/>
    </g>
   </g>
   <g id="line2d_71">
    <path d="M 1438.614375 366.099219 
L 1458.614375 366.099219 
" style="fill:none;stroke:#ff7f0e;stroke-linecap:round;stroke-width:1.5;"/>
   </g>
   <g id="line2d_72"/>
   <g id="text_42">
    <!-- pseudotyped -->
    <g style="fill:#262626;" transform="translate(1466.614375 369.599219)scale(0.1 -0.1)">
     <defs>
      <path d="M 397 -1278 
L 334 -750 
Q 519 -800 656 -800 
Q 844 -800 956 -737 
Q 1069 -675 1141 -563 
Q 1194 -478 1313 -144 
Q 1328 -97 1363 -6 
L 103 3319 
L 709 3319 
L 1400 1397 
Q 1534 1031 1641 628 
Q 1738 1016 1872 1384 
L 2581 3319 
L 3144 3319 
L 1881 -56 
Q 1678 -603 1566 -809 
Q 1416 -1088 1222 -1217 
Q 1028 -1347 759 -1347 
Q 597 -1347 397 -1278 
z
" id="ArialMT-79" transform="scale(0.015625)"/>
     </defs>
     <use xlink:href="#ArialMT-70"/>
     <use x="55.615234" xlink:href="#ArialMT-73"/>
     <use x="105.615234" xlink:href="#ArialMT-65"/>
     <use x="161.230469" xlink:href="#ArialMT-75"/>
     <use x="216.845703" xlink:href="#ArialMT-64"/>
     <use x="272.460938" xlink:href="#ArialMT-6f"/>
     <use x="328.076172" xlink:href="#ArialMT-74"/>
     <use x="355.859375" xlink:href="#ArialMT-79"/>
     <use x="405.859375" xlink:href="#ArialMT-70"/>
     <use x="461.474609" xlink:href="#ArialMT-65"/>
     <use x="517.089844" xlink:href="#ArialMT-64"/>
    </g>
   </g>
   <g id="line2d_73">
    <path d="M 1438.614375 380.361719 
L 1458.614375 380.361719 
" style="fill:none;stroke:#2ca02c;stroke-linecap:round;stroke-width:1.5;"/>
   </g>
   <g id="line2d_74"/>
   <g id="text_43">
    <!-- bernoulli -->
    <g style="fill:#262626;" transform="translate(1466.614375 383.861719)scale(0.1 -0.1)">
     <use xlink:href="#ArialMT-62"/>
     <use x="55.615234" xlink:href="#ArialMT-65"/>
     <use x="111.230469" xlink:href="#ArialMT-72"/>
     <use x="144.53125" xlink:href="#ArialMT-6e"/>
     <use x="200.146484" xlink:href="#ArialMT-6f"/>
     <use x="255.761719" xlink:href="#ArialMT-75"/>
     <use x="311.376953" xlink:href="#ArialMT-6c"/>
     <use x="333.59375" xlink:href="#ArialMT-6c"/>
     <use x="355.810547" xlink:href="#ArialMT-69"/>
    </g>
   </g>
  </g>
 </g>
 <defs>
  <clipPath id="pe191e6dd09">
   <rect height="300.366625" width="330.853103" x="56.99" y="24.72"/>
  </clipPath>
  <clipPath id="pbd940fa421">
   <rect height="300.366625" width="330.853103" x="398.825773" y="24.72"/>
  </clipPath>
  <clipPath id="p9a164664ab">
   <rect height="300.366625" width="330.853103" x="740.661546" y="24.72"/>
  </clipPath>
  <clipPath id="p08c6a65632">
   <rect height="300.366625" width="330.853103" x="1082.497319" y="24.72"/>
  </clipPath>
  <clipPath id="p2e77669038">
   <rect height="300.366625" width="330.853103" x="56.99" y="372.36"/>
  </clipPath>
 </defs>
</svg>
